<svg width="113" height="62" viewBox="0 0 113 62" fill="none" xmlns="http://www.w3.org/2000/svg">
<path d="M110.388 61.4993L112.871 59.0166L103.353 49.4986L100.87 51.9813L110.388 61.4993Z" fill="#BFF747"/>
<path d="M112.842 51.9914L110.359 49.5088L100.841 59.0268L103.324 61.5094L112.842 51.9914Z" fill="#BFF747"/>
<path d="M85.3689 61.4993L87.8516 59.0166L78.3336 49.4986L75.8509 51.9813L85.3689 61.4993Z" fill="#BFF747"/>
<path d="M87.8225 51.9914L85.3398 49.5088L75.8219 59.0268L78.3045 61.5094L87.8225 51.9914Z" fill="#BFF747"/>
<path d="M60.3338 61.4816L62.8164 58.999L53.2984 49.481L50.8158 51.9636L60.3338 61.4816Z" fill="#BFF747"/>
<path d="M62.8146 51.9777L60.332 49.4951L50.814 59.0131L53.2967 61.4957L62.8146 51.9777Z" fill="#BFF747"/>
<path d="M35.3298 61.4993L37.8125 59.0166L28.2945 49.4986L25.8119 51.9813L35.3298 61.4993Z" fill="#BFF747"/>
<path d="M37.7834 51.9895L35.3008 49.5068L25.7828 59.0248L28.2655 61.5075L37.7834 51.9895Z" fill="#BFF747"/>
<path d="M10.3103 61.4993L12.793 59.0166L3.27499 49.4986L0.792329 51.9813L10.3103 61.4993Z" fill="#BFF747"/>
<path d="M12.7678 51.9875L10.2852 49.5049L0.767173 59.0229L3.24983 61.5055L12.7678 51.9875Z" fill="#BFF747"/>
<path d="M110.396 36.3489L112.879 33.8662L103.361 24.3482L100.878 26.8309L110.396 36.3489Z" fill="#BFF747"/>
<path d="M112.854 26.8137L110.371 24.3311L100.853 33.849L103.336 36.3317L112.854 26.8137Z" fill="#BFF747"/>
<path d="M85.3806 36.3489L87.8633 33.8662L78.3453 24.3482L75.8626 26.8309L85.3806 36.3489Z" fill="#BFF747"/>
<path d="M87.8381 26.8137L85.3555 24.3311L75.8375 33.849L78.3201 36.3317L87.8381 26.8137Z" fill="#BFF747"/>
<path d="M60.2479 36.3351L62.7305 33.8525L53.2125 24.3345L50.7299 26.8172L60.2479 36.3351Z" fill="#BFF747"/>
<path d="M62.7326 26.8039L60.25 24.3213L50.732 33.8393L53.2146 36.3219L62.7326 26.8039Z" fill="#BFF747"/>
<path d="M35.3377 36.3508L37.8203 33.8682L28.3023 24.3502L25.8197 26.8328L35.3377 36.3508Z" fill="#BFF747"/>
<path d="M37.7991 26.8157L35.3164 24.333L25.7984 33.851L28.2811 36.3337L37.7991 26.8157Z" fill="#BFF747"/>
<path d="M10.322 36.3508L12.8047 33.8682L3.28669 24.3502L0.804036 26.8328L10.322 36.3508Z" fill="#BFF747"/>
<path d="M12.7834 26.8157L10.3008 24.333L0.782786 33.851L3.26544 36.3337L12.7834 26.8157Z" fill="#BFF747"/>
<path d="M110.381 12.9231L112.863 10.4404L103.345 0.922441L100.863 3.4051L110.381 12.9231Z" fill="#BFF747"/>
<path d="M112.854 3.40355L110.371 0.920898L100.853 10.4389L103.336 12.9215L112.854 3.40355Z" fill="#BFF747"/>
<path d="M85.365 12.925L87.8477 10.4424L78.3297 0.924394L75.847 3.40705L85.365 12.925Z" fill="#BFF747"/>
<path d="M87.8381 3.40551L85.3555 0.922852L75.8375 10.4408L78.3201 12.9235L87.8381 3.40551Z" fill="#BFF747"/>
<path d="M60.2361 12.9094L62.7188 10.4268L53.2008 0.908769L50.7182 3.39138L60.2361 12.9094Z" fill="#BFF747"/>
<path d="M62.7287 3.39569L60.2461 0.913086L50.7281 10.4311L53.2107 12.9137L62.7287 3.39569Z" fill="#BFF747"/>
<path d="M35.3259 12.925L37.8086 10.4424L28.2906 0.924394L25.8079 3.40705L35.3259 12.925Z" fill="#BFF747"/>
<path d="M37.7991 3.40551L35.3164 0.922852L25.7984 10.4408L28.2811 12.9235L37.7991 3.40551Z" fill="#BFF747"/>
<path d="M10.3103 12.925L12.793 10.4424L3.27498 0.924394L0.792323 3.40705L10.3103 12.925Z" fill="#BFF747"/>
<path d="M12.7834 3.40551L10.3008 0.922852L0.782792 10.4408L3.26545 12.9235L12.7834 3.40551Z" fill="#BFF747"/>
</svg>
