<svg width="105" height="111" viewBox="0 0 105 111" fill="none" xmlns="http://www.w3.org/2000/svg">
<path d="M101.288 68.1853L68.5175 55.3782L101.573 42.5711C103.283 42.0019 104.423 40.0097 104.138 38.3021C103.568 34.6023 101.858 31.1871 99.8636 28.0564C98.1539 24.6412 95.8742 21.7952 93.0245 19.2338C91.5997 18.0954 89.6049 18.0954 88.1801 19.2338L60.5385 41.4327L66.2378 6.42669C66.8078 4.43448 65.6679 2.72687 63.9581 2.15766C60.5385 0.734654 56.549 0.165455 52.8445 0.450057C49.1399 0.165455 45.1505 0.734654 41.7309 2.15766C40.0211 2.72687 38.8812 4.71908 39.4512 6.42669L45.1505 41.4327L17.5089 19.2338C16.0841 17.8108 14.0893 17.8108 12.6645 19.2338C9.81484 21.5106 7.53513 24.6412 5.82534 28.0564C3.54563 31.1871 2.1208 34.6023 1.2659 38.3021C0.98094 40.2943 2.1208 42.0019 3.83059 42.5711L36.3166 55.3782L3.26066 68.1853C1.55087 68.7545 0.41102 70.7467 0.695984 72.4543C1.26591 76.1541 2.69074 79.5694 4.97045 82.7C6.68024 86.1152 8.95995 88.9612 11.8096 91.5226C13.2344 92.6611 15.2292 92.6611 16.654 91.5226L44.2956 69.3237L38.5963 104.33C38.0263 106.322 39.1662 108.03 40.876 108.883C44.5805 110.022 48.2851 110.591 51.9896 110.306C55.6941 110.591 59.6837 110.022 63.1032 108.883C64.813 108.314 65.9529 106.322 65.3829 104.33L59.6836 69.3237L87.3252 91.5226C88.75 92.6611 90.7448 92.6611 92.4546 91.5226C95.3042 89.2458 97.5839 86.3998 99.2937 82.9846C101.573 79.854 102.998 76.4387 103.853 72.7389C104.138 70.4621 103.283 68.7545 101.288 68.1853Z" fill="#BFF747"/>
</svg>
