<svg width="160" height="161" viewBox="0 0 160 161" fill="none" xmlns="http://www.w3.org/2000/svg">
<circle cx="80" cy="80.8594" r="80" fill="#BFF747"/>
<circle cx="79.998" cy="80.8594" r="33.9902" fill="black"/>
<circle cx="80" cy="80.8594" r="20" fill="#BFF747"/>
<path d="M85.0946 77.568L74.1396 88.5231L72.3398 86.7233L83.2936 75.7683H73.6394V73.2227H87.6402V87.2235H85.0946V77.568Z" fill="black"/>
<path d="M81.0702 26.2782L81.7148 17.0586L87.8406 17.4869L87.7367 18.972L83.294 18.6613L83.1288 21.025L87.324 21.3183L87.2201 22.8034L83.0249 22.51L82.857 24.9108L87.2997 25.2215L87.1959 26.7065L81.0702 26.2782Z" fill="black"/>
<path d="M87.911 26.749L91.8742 22.8635L89.9383 17.7319L91.8275 18.1514L93.4108 22.3532L92.5388 22.1597L95.7393 19.0198L97.6285 19.4392L93.7151 23.2722L95.6497 28.467L93.7604 28.0476L92.1758 23.7946L93.0478 23.9882L89.8003 27.1684L87.911 26.749Z" fill="black"/>
<path d="M97.0626 28.9608L100.434 20.3555L103.645 21.6134C104.23 21.8426 104.704 22.1526 105.066 22.5431C105.439 22.929 105.672 23.3758 105.767 23.8835C105.864 24.3835 105.799 24.9222 105.573 25.4998C105.35 26.0696 105.027 26.5073 104.606 26.8129C104.195 27.1137 103.724 27.2845 103.193 27.3252C102.661 27.3658 102.103 27.2715 101.518 27.0423L99.8778 26.3997L98.6335 29.5762L97.0626 28.9608ZM100.421 25.0136L102.084 25.6652C102.369 25.7768 102.637 25.8195 102.887 25.7931C103.14 25.759 103.363 25.6645 103.557 25.5096C103.751 25.3546 103.9 25.1462 104.002 24.8844C104.108 24.6149 104.14 24.3612 104.1 24.1235C104.063 23.878 103.962 23.6606 103.796 23.4714C103.634 23.2744 103.41 23.1201 103.125 23.0085L101.462 22.3569L100.421 25.0136Z" fill="black"/>
<path d="M104.529 32.074L109.047 24.0117L110.519 24.8365L106.728 31.6002L110.18 33.5349L109.453 34.8335L104.529 32.074Z" fill="black"/>
<path d="M113.978 38.3779C113.444 37.9611 113.018 37.4777 112.702 36.9276C112.387 36.3775 112.188 35.7981 112.107 35.1895C112.025 34.5808 112.064 33.9719 112.225 33.3628C112.396 32.7522 112.69 32.1794 113.107 31.6445C113.529 31.103 114.013 30.6776 114.558 30.3683C115.103 30.0591 115.68 29.8695 116.29 29.7997C116.9 29.7299 117.508 29.7841 118.114 29.9623C118.724 30.134 119.3 30.4308 119.842 30.8527C120.383 31.2746 120.812 31.7606 121.128 32.3107C121.443 32.8608 121.642 33.4401 121.724 34.0488C121.81 34.6509 121.77 35.254 121.603 35.8581C121.443 36.4672 121.152 37.0425 120.73 37.584C120.314 38.119 119.827 38.5418 119.27 38.8525C118.719 39.1567 118.138 39.3437 117.528 39.4135C116.918 39.4834 116.307 39.4324 115.697 39.2607C115.093 39.0941 114.52 38.7998 113.978 38.3779ZM114.924 37.1645C115.283 37.4441 115.661 37.6388 116.057 37.7487C116.459 37.852 116.86 37.8759 117.259 37.8204C117.666 37.77 118.049 37.6339 118.411 37.4123C118.779 37.1957 119.105 36.9048 119.39 36.5394C119.674 36.1741 119.874 35.7898 119.989 35.3866C120.116 34.982 120.154 34.5766 120.103 34.1703C120.065 33.7626 119.943 33.3799 119.74 33.0221C119.536 32.6644 119.255 32.3457 118.896 32.0661C118.544 31.7916 118.17 31.5995 117.773 31.4896C117.376 31.3797 116.972 31.3533 116.561 31.4102C116.161 31.4657 115.777 31.6018 115.409 31.8183C115.047 32.0284 114.723 32.3161 114.438 32.6814C114.154 33.0467 113.951 33.4343 113.831 33.844C113.711 34.2537 113.673 34.6591 113.717 35.0603C113.767 35.4665 113.892 35.8518 114.09 36.2161C114.294 36.5739 114.572 36.89 114.924 37.1645Z" fill="black"/>
<path d="M117.979 41.5856L124.766 35.3125L127.098 37.836C127.525 38.2976 127.816 38.7831 127.971 39.2926C128.138 39.8024 128.154 40.3064 128.017 40.8043C127.887 41.2966 127.593 41.7533 127.138 42.1743C126.67 42.6065 126.169 42.8619 125.633 42.9403C125.103 43.0248 124.585 42.9517 124.079 42.7211L122.795 46.7966L121.498 45.3936L122.936 40.973L123.204 42.2126L121.629 40.509L119.124 42.8246L117.979 41.5856ZM122.722 39.4986L123.926 40.8013C124.134 41.026 124.356 41.1811 124.593 41.2665C124.835 41.3463 125.078 41.3587 125.32 41.3039C125.562 41.249 125.786 41.1262 125.993 40.9353C126.205 40.7389 126.345 40.5249 126.413 40.2935C126.487 40.0564 126.49 39.8166 126.424 39.574C126.363 39.3258 126.229 39.0894 126.022 38.8647L124.818 37.5619L122.722 39.4986Z" fill="black"/>
<path d="M123.398 47.6898L131.016 42.457L134.492 47.5187L133.265 48.3615L130.744 44.6906L128.791 46.0321L131.172 49.4986L129.945 50.3414L127.564 46.875L125.58 48.2376L128.101 51.9086L126.874 52.7514L123.398 47.6898Z" fill="black"/>
<path d="M129.389 57.1958L138.035 53.9316L138.605 55.4404L135.429 60.3391L135.157 59.6195L140.752 61.1273L141.321 62.6361L132.675 65.9003L132.075 64.3103L138.922 61.7252L139.003 62.3973L133.388 60.7646L133.318 60.5789L136.484 55.7239L136.832 56.1892L129.985 58.7742L129.389 57.1958Z" fill="black"/>
<path d="M133.773 72.5126C133.662 71.8437 133.675 71.2 133.815 70.5812C133.955 69.9625 134.201 69.4016 134.553 68.8983C134.904 68.3951 135.345 67.9733 135.876 67.6332C136.415 67.2998 137.019 67.0771 137.688 66.9653C138.365 66.8521 139.009 66.866 139.62 67.0071C140.23 67.1482 140.784 67.3994 141.28 67.7608C141.777 68.1222 142.187 68.5734 142.513 69.1144C142.846 69.654 143.069 70.2623 143.183 70.9393C143.296 71.6164 143.283 72.2642 143.143 72.883C143.003 73.5017 142.757 74.0626 142.405 74.5659C142.062 75.0678 141.624 75.4847 141.093 75.8168C140.563 76.1569 139.959 76.3836 139.282 76.4968C138.613 76.6087 137.969 76.5907 137.349 76.4428C136.737 76.2936 136.182 76.0382 135.686 75.6768C135.19 75.3154 134.775 74.8649 134.441 74.3253C134.109 73.7939 133.887 73.1897 133.773 72.5126ZM135.291 72.2589C135.366 72.7076 135.512 73.1065 135.73 73.4559C135.956 73.8038 136.234 74.0926 136.566 74.3222C136.9 74.5599 137.274 74.7195 137.69 74.8009C138.108 74.8904 138.545 74.8969 139.002 74.8206C139.459 74.7442 139.866 74.5965 140.223 74.3774C140.59 74.1651 140.892 73.8923 141.13 73.5591C141.378 73.2326 141.547 72.8688 141.64 72.4677C141.732 72.0666 141.74 71.6417 141.665 71.193C141.592 70.7525 141.446 70.3576 141.228 70.0083C141.011 69.659 140.731 69.3662 140.39 69.1298C140.058 68.9002 139.683 68.7406 139.266 68.6511C138.856 68.5602 138.423 68.553 137.966 68.6293C137.51 68.7057 137.098 68.8541 136.733 69.0746C136.367 69.2951 136.065 69.5678 135.826 69.8929C135.588 70.2261 135.419 70.594 135.318 70.9965C135.226 71.3976 135.217 71.8185 135.291 72.2589Z" fill="black"/>
<path d="M134.543 77.618L143.785 77.5957L143.793 81.032C143.795 81.6605 143.681 82.2149 143.45 82.6952C143.228 83.1837 142.898 83.5649 142.46 83.8389C142.031 84.1128 141.506 84.2505 140.886 84.252C140.249 84.2536 139.707 84.1019 139.26 83.797C138.812 83.5003 138.481 83.0959 138.264 82.5836L134.56 84.7139L134.556 82.8034L138.607 80.5235L137.964 81.6167L137.959 79.2969L134.547 79.3051L134.543 77.618ZM139.447 79.2933L139.452 81.0673C139.452 81.3733 139.511 81.6378 139.627 81.8608C139.752 82.0838 139.922 82.2571 140.137 82.3806C140.352 82.5041 140.601 82.5656 140.882 82.5649C141.171 82.5642 141.419 82.5016 141.626 82.377C141.84 82.2525 142.005 82.0784 142.121 81.8548C142.244 81.6312 142.306 81.3664 142.305 81.0604L142.301 79.2864L139.447 79.2933Z" fill="black"/>
<path d="M134.398 85.8253L143.547 87.1328L142.678 93.2118L141.204 93.0011L141.835 88.5924L139.489 88.2572L138.894 92.4203L137.42 92.2097L138.015 88.0466L135.633 87.7061L135.003 92.1148L133.529 91.9042L134.398 85.8253Z" fill="black"/>
<path d="M135.979 99.804L137.009 99.1261L137.848 100.401L138.796 99.2297L139.757 99.994L138.821 101.169L140.311 101.719L139.882 102.883L138.392 102.333L138.34 103.835L137.113 103.792L137.153 102.286L135.687 102.711L135.348 101.515L136.814 101.09L135.979 99.804Z" fill="black"/>
<path d="M127.644 107.571L135.453 112.514L132.169 117.702L130.911 116.906L133.293 113.143L131.291 111.876L129.042 115.429L127.784 114.633L130.033 111.079L128 109.792L125.618 113.555L124.36 112.759L127.644 107.571Z" fill="black"/>
<path d="M123.966 113.394L125.505 118.727L130.941 119.458L129.675 120.922L125.225 120.321L125.809 119.646L127.054 123.953L125.788 125.417L124.272 120.153L118.781 119.39L120.047 117.926L124.543 118.55L123.958 119.226L122.701 114.858L123.966 113.394Z" fill="black"/>
<path d="M117.689 120.388L123.68 127.426L121.054 129.661C120.575 130.069 120.078 130.34 119.563 130.474C119.046 130.62 118.542 130.615 118.05 130.458C117.564 130.308 117.119 129.996 116.717 129.524C116.321 129.058 116.087 128.567 116.017 128.051C115.946 127.546 116.018 127.05 116.234 126.563C116.449 126.076 116.796 125.629 117.274 125.221L118.616 124.079L116.404 121.482L117.689 120.388ZM119.581 125.213L118.22 126.371C117.987 126.569 117.823 126.785 117.728 127.018C117.639 127.257 117.616 127.499 117.661 127.743C117.706 127.987 117.82 128.216 118.002 128.43C118.19 128.651 118.398 128.799 118.626 128.876C118.86 128.96 119.099 128.973 119.345 128.917C119.595 128.866 119.837 128.742 120.07 128.544L121.43 127.386L119.581 125.213Z" fill="black"/>
<path d="M111.42 125.493L116.398 133.279L114.977 134.188L110.8 127.656L107.466 129.788L106.664 128.534L111.42 125.493Z" fill="black"/>
<path d="M101.396 130.861C102.016 130.586 102.643 130.44 103.277 130.421C103.911 130.403 104.515 130.501 105.09 130.717C105.665 130.933 106.183 131.255 106.645 131.684C107.102 132.123 107.468 132.653 107.742 133.273C108.021 133.901 108.167 134.528 108.182 135.155C108.197 135.781 108.092 136.38 107.865 136.95C107.639 137.521 107.304 138.031 106.861 138.481C106.421 138.938 105.887 139.305 105.26 139.583C104.632 139.861 104.001 140.01 103.367 140.028C102.733 140.047 102.129 139.948 101.554 139.733C100.982 139.524 100.47 139.204 100.016 138.772C99.5544 138.343 99.1848 137.815 98.9067 137.187C98.6321 136.567 98.4892 135.939 98.4783 135.301C98.4706 134.672 98.5801 134.071 98.8067 133.501C99.0333 132.93 99.3665 132.416 99.8062 131.959C100.238 131.505 100.768 131.139 101.396 130.861ZM102.019 132.268C101.603 132.452 101.253 132.693 100.969 132.991C100.688 133.296 100.478 133.638 100.338 134.016C100.19 134.398 100.129 134.801 100.154 135.224C100.171 135.651 100.273 136.076 100.461 136.499C100.648 136.923 100.893 137.28 101.194 137.572C101.491 137.875 101.83 138.1 102.212 138.247C102.59 138.405 102.984 138.479 103.396 138.469C103.807 138.459 104.221 138.361 104.637 138.177C105.045 137.996 105.391 137.757 105.675 137.459C105.96 137.161 106.174 136.818 106.318 136.428C106.458 136.05 106.519 135.647 106.502 135.22C106.488 134.801 106.387 134.38 106.2 133.957C106.012 133.533 105.766 133.172 105.462 132.873C105.157 132.573 104.818 132.348 104.444 132.197C104.062 132.05 103.663 131.978 103.249 131.981C102.837 131.991 102.427 132.087 102.019 132.268Z" fill="black"/>
<path d="M96.6858 132.865L98.9922 141.814L95.6646 142.672C95.0559 142.829 94.4905 142.855 93.9682 142.75C93.4399 142.656 92.989 142.431 92.6153 142.074C92.2437 141.726 91.9805 141.251 91.8257 140.651C91.6668 140.034 91.6798 139.471 91.8647 138.963C92.0415 138.456 92.3514 138.034 92.7943 137.698L89.8144 134.636L91.6644 134.159L94.8751 137.521L93.657 137.168L95.9034 136.589L95.0521 133.286L96.6858 132.865ZM96.2749 138.031L94.557 138.474C94.2607 138.55 94.0189 138.672 93.8315 138.84C93.6463 139.016 93.5204 139.223 93.4539 139.463C93.3875 139.702 93.3893 139.957 93.4595 140.23C93.5317 140.51 93.6537 140.735 93.8254 140.904C93.9992 141.081 94.2087 141.198 94.4538 141.255C94.701 141.319 94.9728 141.313 95.2691 141.237L96.9869 140.794L96.2749 138.031Z" fill="black"/>
<path d="M88.7672 134.739L89.7578 143.928L83.6525 144.586L83.4929 143.106L87.9208 142.628L87.6668 140.273L83.4856 140.723L83.3261 139.243L87.5073 138.793L87.2493 136.4L82.8214 136.877L82.6618 135.397L88.7672 134.739Z" fill="black"/>
<path d="M77.4436 135.501L76.2227 144.662L74.6241 144.449L71.8144 139.331L72.5768 139.433L68.5987 143.646L67.0001 143.433L68.2211 134.272L69.9057 134.496L68.9388 141.751L68.3084 141.505L72.4062 137.333L72.6029 137.359L75.379 142.447L74.8043 142.533L75.7713 135.278L77.4436 135.501Z" fill="black"/>
<path d="M61.8858 132.108C62.5279 132.326 63.0884 132.644 63.5672 133.059C64.0461 133.475 64.4239 133.957 64.7006 134.506C64.9773 135.054 65.14 135.642 65.1887 136.27C65.227 136.903 65.137 137.541 64.9189 138.183C64.6981 138.833 64.3811 139.393 63.9678 139.864C63.5545 140.335 63.0712 140.704 62.5178 140.97C61.9644 141.236 61.3725 141.385 60.7421 141.415C60.1089 141.453 59.4674 141.362 58.8174 141.141C58.1675 140.92 57.6031 140.602 57.1242 140.186C56.6454 139.77 56.2676 139.288 55.9909 138.74C55.7115 138.2 55.5514 137.617 55.5105 136.991C55.4617 136.363 55.5478 135.724 55.7686 135.075C55.9867 134.432 56.3076 133.873 56.7314 133.397C57.1526 132.929 57.6398 132.561 58.1932 132.295C58.7465 132.029 59.3398 131.877 59.9729 131.838C60.5982 131.798 61.2358 131.888 61.8858 132.108ZM61.391 133.565C60.9603 133.419 60.5396 133.359 60.1288 133.385C59.7154 133.419 59.329 133.528 58.9697 133.712C58.6025 133.893 58.2846 134.147 58.0159 134.475C57.7395 134.801 57.5268 135.183 57.3778 135.621C57.2288 136.06 57.1662 136.488 57.19 136.907C57.2033 137.331 57.3004 137.726 57.4814 138.093C57.6519 138.466 57.8919 138.787 58.2016 139.059C58.5113 139.33 58.8815 139.538 59.3122 139.685C59.7351 139.828 60.1519 139.887 60.5626 139.861C60.9734 139.834 61.3637 139.726 61.7335 139.538C62.0929 139.354 62.4108 139.1 62.6873 138.774C62.9611 138.457 63.1724 138.079 63.3214 137.64C63.4704 137.202 63.5343 136.769 63.5132 136.343C63.4921 135.916 63.395 135.521 63.2218 135.156C63.0408 134.789 62.7968 134.466 62.4898 134.187C62.1802 133.916 61.8139 133.709 61.391 133.565Z" fill="black"/>
<path d="M57.054 130.388L52.6875 138.533L49.6589 136.91C49.1049 136.613 48.6713 136.249 48.3579 135.818C48.0333 135.391 47.8543 134.92 47.8209 134.404C47.7835 133.896 47.9114 133.369 48.2044 132.822C48.5053 132.261 48.8961 131.856 49.3768 131.607C49.8502 131.354 50.3636 131.254 50.9171 131.307L50.7999 127.035L52.4837 127.938L52.568 132.586L51.9106 131.501L53.9552 132.597L55.567 129.591L57.054 130.388ZM53.2519 133.909L51.6884 133.071C51.4187 132.927 51.1581 132.853 50.9066 132.849C50.6512 132.853 50.418 132.92 50.2071 133.051C49.9961 133.182 49.8242 133.372 49.6914 133.619C49.5546 133.875 49.4921 134.122 49.5037 134.363C49.5115 134.611 49.5864 134.839 49.7285 135.047C49.8667 135.262 50.0706 135.441 50.3403 135.586L51.9039 136.424L53.2519 133.909Z" fill="black"/>
<path d="M49.9471 126.396L44.4531 133.828L39.5152 130.178L40.4001 128.981L43.9814 131.628L45.3899 129.723L42.0082 127.223L42.8931 126.026L46.2748 128.526L47.7055 126.59L44.1242 123.943L45.0092 122.746L49.9471 126.396Z" fill="black"/>
<path d="M36.8893 121.155L36.9997 122.383L35.4799 122.519L36.0639 123.908L34.9361 124.394L34.3428 123.013L33.1543 124.066L32.3316 123.138L33.5201 122.085L32.2211 121.33L32.8388 120.268L34.1471 121.015L34.4657 119.523L35.6799 119.79L35.3613 121.282L36.8893 121.155Z" fill="black"/>
<path d="M33.979 110.144L25.9375 114.699L22.9109 109.356L24.2061 108.622L26.4012 112.498L28.4629 111.33L26.3901 107.671L27.6854 106.937L29.7581 110.596L31.8522 109.41L29.6571 105.535L30.9524 104.801L33.979 110.144Z" fill="black"/>
<path d="M30.5809 104.148L25.1543 102.984L21.9404 107.428L21.2487 105.621L23.8815 101.983L24.2007 102.817L19.8167 101.878L19.125 100.071L24.4804 101.223L27.7479 96.7446L28.4395 98.5521L25.7648 102.219L25.4456 101.385L29.8893 102.341L30.5809 104.148Z" fill="black"/>
<path d="M27.3741 95.2901L18.3359 97.2207L17.6155 93.8481C17.4842 93.2334 17.4817 92.6673 17.608 92.1498C17.7244 91.626 17.9685 91.1849 18.3401 90.8264C18.7037 90.4697 19.1888 90.2265 19.7954 90.097C20.3939 89.9691 20.9368 89.9969 21.4242 90.1803C21.9018 90.3574 22.3039 90.6563 22.6306 91.077C22.9572 91.4977 23.1862 92.0155 23.3175 92.6301L23.6855 94.3528L27.0217 93.6402L27.3741 95.2901ZM22.2296 94.6638L21.8565 92.9168C21.7926 92.6176 21.6807 92.3709 21.5208 92.1767C21.3528 91.9842 21.1508 91.8498 20.9146 91.7734C20.6784 91.697 20.4228 91.6881 20.1478 91.7469C19.8647 91.8073 19.635 91.9198 19.4587 92.0843C19.2744 92.2506 19.1489 92.455 19.0823 92.6975C19.0076 92.9418 19.0023 93.2136 19.0662 93.5128L19.4393 95.2598L22.2296 94.6638Z" fill="black"/>
<path d="M25.8689 87.3874L16.6523 88.0742L16.527 86.3917L24.2589 85.8155L23.9648 81.8691L25.4494 81.7585L25.8689 87.3874Z" fill="black"/>
<path d="M25.8978 75.9191C25.8457 76.5952 25.6776 77.2168 25.3934 77.7839C25.1092 78.3509 24.7358 78.8365 24.2734 79.2405C23.8109 79.6445 23.2816 79.9479 22.6853 80.1509C22.0814 80.3449 21.4414 80.4159 20.7653 80.3638C20.0809 80.3111 19.4592 80.143 18.9005 79.8594C18.3417 79.5758 17.8647 79.199 17.4696 78.7289C17.0744 78.2589 16.784 77.7222 16.5982 77.119C16.4041 76.5151 16.3335 75.871 16.3862 75.1866C16.4389 74.5022 16.6073 73.8764 16.8916 73.3094C17.1758 72.7423 17.5491 72.2568 18.0115 71.8528C18.4657 71.4482 18.9907 71.1485 19.5863 70.9538C20.1825 70.7509 20.8229 70.6758 21.5073 70.7285C22.1835 70.7806 22.8047 70.9528 23.3711 71.2453C23.9293 71.5371 24.406 71.9181 24.8011 72.3881C25.1962 72.8582 25.4908 73.3951 25.6848 73.999C25.8795 74.5946 25.9505 75.2347 25.8978 75.9191ZM24.3641 75.801C24.399 75.3474 24.3527 74.925 24.2253 74.5336C24.0896 74.1416 23.8882 73.7943 23.6212 73.4917C23.3548 73.1809 23.0294 72.936 22.6451 72.7571C22.2613 72.5699 21.8386 72.4586 21.3768 72.423C20.915 72.3875 20.4843 72.4331 20.0847 72.5599C19.6775 72.6779 19.3184 72.87 19.0076 73.1364C18.6892 73.3939 18.437 73.7063 18.2511 74.0735C18.0652 74.4408 17.9548 74.8512 17.9199 75.3047C17.8856 75.75 17.9322 76.1683 18.0597 76.5597C18.1871 76.951 18.3882 77.3025 18.6628 77.6139C18.9298 77.9165 19.2552 78.1614 19.6389 78.3485C20.0144 78.5351 20.433 78.6461 20.8948 78.6817C21.3566 78.7172 21.7914 78.6719 22.1993 78.5457C22.6071 78.4195 22.9662 78.2274 23.2764 77.9692C23.5872 77.7028 23.8397 77.3864 24.0338 77.0197C24.2197 76.6525 24.3298 76.2462 24.3641 75.801Z" fill="black"/>
<path d="M26.3628 70.8322L17.3867 68.6309L18.2052 65.2934C18.3549 64.683 18.5993 64.1724 18.9385 63.7617C19.2716 63.341 19.6835 63.0503 20.1742 62.8896C20.6569 62.727 21.1995 62.7195 21.8019 62.8673C22.4204 63.019 22.91 63.2966 23.2709 63.7002C23.6337 64.0957 23.8585 64.5681 23.9452 65.1173L28.053 63.9405L27.5979 65.796L23.1173 67.0346L24.0039 66.128L23.4513 68.381L26.7647 69.1936L26.3628 70.8322ZM22.0055 68.0265L22.4281 66.3035C22.501 66.0063 22.5078 65.7355 22.4485 65.4911C22.3812 65.2446 22.2579 65.0356 22.0786 64.8639C21.8993 64.6922 21.6731 64.5728 21.4 64.5059C21.1189 64.4369 20.8632 64.4381 20.6328 64.5093C20.3944 64.5786 20.1924 64.7079 20.0268 64.8971C19.8531 65.0845 19.7298 65.3267 19.6569 65.6239L19.2344 67.3469L22.0055 68.0265Z" fill="black"/>
<path d="M28.4598 62.9558L19.8984 59.4746L22.2114 53.7862L23.5904 54.3469L21.9129 58.4725L24.1079 59.3649L25.6919 55.4692L27.0709 56.0299L25.4869 59.9257L27.7163 60.8322L29.3938 56.7066L30.7728 57.2673L28.4598 62.9558Z" fill="black"/>
<path d="M33.1126 52.7122L25.6289 47.2891L26.5752 45.9832L32.4133 45.9395L31.962 46.5623L30.1421 41.061L31.0884 39.7552L38.5721 45.1783L37.5748 46.5545L31.6482 42.2597L32.1646 41.8219L33.8915 47.409L33.7751 47.5697L27.9789 47.5979L28.1759 47.0512L34.1026 51.3461L33.1126 52.7122Z" fill="black"/>
<path d="M43.4815 40.6154C42.9856 41.078 42.4412 41.4219 41.8482 41.6471C41.2553 41.8723 40.6518 41.9771 40.038 41.9617C39.4241 41.9462 38.829 41.8115 38.2527 41.5574C37.6767 41.2916 37.1575 40.9108 36.6949 40.4149C36.2266 39.913 35.8827 39.3686 35.6632 38.7816C35.4436 38.1947 35.3474 37.5945 35.3746 36.9811C35.4017 36.3676 35.551 35.7759 35.8224 35.206C36.0882 34.6301 36.472 34.108 36.974 33.6398C37.4759 33.1715 38.0233 32.8248 38.6163 32.5996C39.2093 32.3745 39.8127 32.2696 40.4266 32.2851C41.0348 32.2945 41.6241 32.429 42.1943 32.6887C42.7707 32.9428 43.293 33.3208 43.7612 33.8227C44.2238 34.3186 44.5647 34.8659 44.7838 35.4645C44.9973 36.0571 45.0905 36.6601 45.0633 37.2735C45.0362 37.887 44.8897 38.4817 44.624 39.0576C44.3643 39.6279 43.9834 40.1472 43.4815 40.6154ZM42.4322 39.4906C42.7648 39.1803 43.0166 38.838 43.1876 38.4636C43.3529 38.0831 43.4397 37.6911 43.4478 37.2877C43.462 36.8786 43.3882 36.4781 43.2262 36.0863C43.0703 35.6888 42.8344 35.3207 42.5185 34.9821C42.2026 34.6434 41.8546 34.3856 41.4745 34.2086C41.0949 34.0198 40.7005 33.9184 40.2914 33.9042C39.8827 33.8783 39.4856 33.9376 39.1002 34.0822C38.7149 34.2269 38.3559 34.4543 38.0233 34.7646C37.6967 35.0692 37.448 35.4088 37.277 35.7832C37.106 36.1576 37.0162 36.5524 37.0076 36.9675C36.9995 37.371 37.0734 37.7715 37.2292 38.1689C37.3795 38.5604 37.6126 38.9254 37.9285 39.264C38.2445 39.6027 38.5953 39.8636 38.981 40.0467C39.3667 40.2297 39.761 40.3312 40.1641 40.351C40.5732 40.3652 40.9733 40.3031 41.3643 40.1645C41.7497 40.0199 42.1056 39.7953 42.4322 39.4906Z" fill="black"/>
<path d="M47.2867 37.1671L42.1641 29.4746L45.0242 27.5699C45.5474 27.2215 46.0728 27.0108 46.6004 26.9377C47.1303 26.8531 47.6303 26.9175 48.1004 27.1311C48.5659 27.3378 48.9706 27.6992 49.3144 28.2155C49.6674 28.7456 49.8403 29.2812 49.8331 29.8226C49.8328 30.3593 49.6789 30.8593 49.3713 31.3225L53.1929 33.234L51.6028 34.2929L47.4647 32.1748L48.7309 32.1066L46.8001 33.3924L48.691 36.2319L47.2867 37.1671ZM45.975 32.1534L47.4515 31.1701C47.7062 31.0005 47.8944 30.8056 48.0161 30.5855C48.1332 30.3584 48.1837 30.1211 48.1678 29.8733C48.1519 29.6256 48.066 29.3847 47.9101 29.1507C47.7497 28.9097 47.5605 28.7376 47.3427 28.6343C47.1202 28.5241 46.884 28.4827 46.634 28.51C46.3793 28.5306 46.1247 28.6256 45.87 28.7952L44.3935 29.7785L45.975 32.1534Z" fill="black"/>
<path d="M54.1617 32.7811L50.2031 24.4297L55.752 21.7995L56.3897 23.1447L52.3653 25.0522L53.3802 27.1933L57.1803 25.392L57.818 26.7372L54.0178 28.5385L55.0486 30.7132L59.073 28.8057L59.7106 30.1508L54.1617 32.7811Z" fill="black"/>
<path d="M64.8723 23.7912L63.7307 23.325L64.3075 21.9123L62.8058 21.793L62.8927 20.5682L64.3913 20.6754L64.002 19.136L65.2047 18.8318L65.594 20.3712L66.8615 19.5644L67.5203 20.6007L66.2558 21.4195L67.4349 22.3881L66.6402 23.3441L65.4611 22.3755L64.8723 23.7912Z" fill="black"/>
</svg>
