<svg width="201" height="201" viewBox="0 0 201 201" fill="none" xmlns="http://www.w3.org/2000/svg">
<circle cx="100.098" cy="100.41" r="100" fill="#BFF747"/>
<circle cx="100.097" cy="100.41" r="42.4878" fill="black"/>
<circle cx="100.098" cy="100.41" r="25" fill="#BFF747"/>
<path d="M106.467 96.295L92.7731 109.989L90.5234 107.739L104.216 94.0453H92.1479V90.8633H109.649V108.364H106.467V96.295Z" fill="black"/>
<path d="M107.703 33.1246C106.774 33.0331 105.931 32.7801 105.175 32.3656C104.419 31.9511 103.775 31.4129 103.242 30.7509C102.709 30.0889 102.315 29.3349 102.058 28.4891C101.813 27.6444 101.738 26.7403 101.833 25.7767C101.928 24.8132 102.172 23.9405 102.566 23.1588C102.972 22.3665 103.495 21.703 104.134 21.1681C104.785 20.6228 105.522 20.2265 106.343 19.9793C107.166 19.7204 108.041 19.6367 108.97 19.7282C109.899 19.8198 110.713 20.0583 111.414 20.4438C112.126 20.8305 112.712 21.3102 113.171 21.8829C113.632 22.4441 113.942 23.0432 114.102 23.6802L111.895 24.4826C111.718 23.7852 111.359 23.1989 110.82 22.7238C110.281 22.2487 109.593 21.9699 108.757 21.8875C107.945 21.8075 107.206 21.9281 106.541 22.2494C105.888 22.5719 105.355 23.0526 104.94 23.6916C104.537 24.3318 104.291 25.1046 104.201 26.0101C104.112 26.9157 104.208 27.728 104.489 28.4473C104.782 29.1561 105.224 29.733 105.813 30.1778C106.402 30.6227 107.103 30.8852 107.915 30.9653C108.577 31.0305 109.199 30.9629 109.782 30.7624C110.365 30.5503 110.849 30.2228 111.232 29.78C111.617 29.3256 111.842 28.7676 111.907 28.1058L112.005 27.1132L112.992 28.16L108.186 27.6863L108.383 25.6838L114.478 26.2844L114.349 27.5904C114.251 28.5888 113.996 29.4545 113.583 30.1876C113.171 30.9206 112.649 31.5197 112.017 31.9849C111.398 32.4397 110.715 32.7651 109.969 32.9612C109.224 33.1456 108.469 33.2001 107.703 33.1246Z" fill="black"/>
<path d="M114.807 33.9773L118.363 21.4355L126.696 23.7982L126.124 25.8183L120.08 24.1048L119.168 27.3202L124.875 28.9383L124.303 30.9584L118.596 29.3404L117.67 32.6063L123.713 34.3198L123.141 36.34L114.807 33.9773Z" fill="black"/>
<path d="M127.228 38.1L131.902 28.2127L128.849 26.7695L129.746 24.8711L137.972 28.7598L137.075 30.6581L134.069 29.2373L129.395 39.1246L127.228 38.1Z" fill="black"/>
<path d="M143.195 48.1814C142.553 47.6576 142.053 47.0532 141.694 46.3682C141.343 45.6906 141.139 44.9817 141.081 44.2414C141.039 43.4994 141.156 42.7746 141.433 42.0668L143.507 42.6531C143.279 43.4306 143.259 44.1747 143.446 44.8853C143.642 45.5868 144.029 46.1737 144.607 46.6459C144.932 46.9115 145.253 47.0905 145.569 47.1829C145.901 47.2736 146.205 47.2803 146.479 47.2029C146.762 47.1328 147.007 46.9713 147.213 46.7183C147.457 46.4201 147.566 46.1023 147.54 45.765C147.53 45.426 147.394 45.0585 147.13 44.6623L145.701 42.4563C145.114 41.5705 144.821 40.7213 144.821 39.9087C144.822 39.0961 145.092 38.36 145.63 37.7004C146.103 37.1221 146.66 36.7259 147.301 36.5118C147.952 36.3051 148.63 36.2863 149.335 36.4555C150.057 36.623 150.747 36.976 151.407 37.5146C152.012 38.0089 152.48 38.5711 152.808 39.2011C153.145 39.8221 153.339 40.4699 153.39 41.1445C153.458 41.8174 153.376 42.4807 153.144 43.1343L151.072 42.5726C151.287 41.9042 151.306 41.2722 151.129 40.6765C150.961 40.0718 150.614 39.5555 150.09 39.1276C149.783 38.8767 149.467 38.7096 149.144 38.6262C148.828 38.5338 148.525 38.5272 148.234 38.6063C147.96 38.6837 147.72 38.8489 147.513 39.1019C147.284 39.3821 147.172 39.7043 147.176 40.0688C147.187 40.4241 147.329 40.8118 147.604 41.2318L148.985 43.3307C149.575 44.2494 149.881 45.1014 149.903 45.8869C149.933 46.6797 149.671 47.415 149.118 48.0927C148.646 48.671 148.08 49.0598 147.42 49.2592C146.761 49.4585 146.065 49.4707 145.335 49.2958C144.604 49.1209 143.891 48.7494 143.195 48.1814Z" fill="black"/>
<path d="M149.92 54.2159L158.075 46.9291L155.825 44.4108L157.391 43.0117L163.453 49.7968L161.888 51.1958L159.672 48.7167L151.517 56.0035L149.92 54.2159Z" fill="black"/>
<path d="M154.439 59.2173L167.857 56.0366L169.505 58.6378L160.902 69.4151L159.516 67.2277L161.384 64.9456L158.686 60.6891L155.816 61.3898L154.439 59.2173ZM160.825 60.1414L162.792 63.245L167.114 57.9369L167.47 58.4985L160.825 60.1414Z" fill="black"/>
<path d="M161.396 70.7249L173.461 65.7871L175.297 70.2729C175.633 71.0935 175.778 71.8787 175.732 72.6286C175.701 73.3848 175.472 74.0582 175.046 74.6487C174.63 75.2347 174.018 75.6934 173.208 76.0248C172.377 76.3651 171.588 76.4547 170.841 76.2939C170.099 76.1438 169.451 75.7916 168.896 75.2371L165.187 79.9881L164.167 77.4941L168.249 72.3632L167.99 74.133L166.751 71.1047L162.298 72.9273L161.396 70.7249ZM168.694 70.3093L169.642 72.6251C169.806 73.0246 170.023 73.3391 170.293 73.5687C170.574 73.794 170.888 73.9301 171.235 73.9772C171.582 74.0242 171.939 73.9726 172.306 73.8224C172.684 73.6677 172.975 73.4542 173.179 73.1818C173.393 72.905 173.516 72.5899 173.548 72.2365C173.591 71.8788 173.53 71.5001 173.367 71.1007L172.419 68.7849L168.694 70.3093Z" fill="black"/>
<path d="M166.049 83.7694L176.728 81.4124L176 78.1146L178.051 77.6621L180.012 86.5473L177.961 86.9999L177.245 83.7533L166.565 86.1103L166.049 83.7694Z" fill="black"/>
<path d="M167.783 92.8347L180.801 92.1387L181.263 100.788L179.166 100.9L178.831 94.6271L175.494 94.8056L175.81 100.729L173.714 100.841L173.397 94.9177L170.007 95.0989L170.342 101.372L168.246 101.484L167.783 92.8347Z" fill="black"/>
<path d="M168.203 103.783L181.145 105.354L180.632 109.575C180.466 110.941 180.045 112.094 179.366 113.034C178.698 113.987 177.844 114.683 176.804 115.121C175.776 115.56 174.624 115.702 173.35 115.548C172.088 115.395 170.999 114.98 170.082 114.305C169.176 113.631 168.508 112.751 168.075 111.664C167.653 110.591 167.525 109.371 167.691 108.004L168.203 103.783ZM170.001 106.399L169.769 108.309C169.662 109.189 169.75 109.97 170.032 110.65C170.324 111.344 170.772 111.909 171.377 112.347C171.993 112.786 172.748 113.06 173.639 113.168C174.542 113.278 175.34 113.192 176.032 112.912C176.724 112.632 177.289 112.189 177.727 111.584C178.163 110.991 178.435 110.254 178.542 109.374L178.773 107.463L170.001 106.399Z" fill="black"/>
<path d="M170.101 125.777L171.575 124.854L172.717 126.678L174.091 125.057L175.422 126.166L174.064 127.794L176.147 128.616L175.505 130.244L173.422 129.421L173.301 131.537L171.572 131.437L171.676 129.315L169.596 129.867L169.156 128.169L171.237 127.617L170.101 125.777Z" fill="black"/>
<path d="M154.191 141.401C154.744 140.649 155.391 140.054 156.134 139.616C156.877 139.177 157.669 138.898 158.51 138.779C159.351 138.659 160.201 138.705 161.059 138.916C161.91 139.137 162.726 139.534 163.506 140.108C164.286 140.682 164.911 141.337 165.382 142.075C165.856 142.829 166.159 143.617 166.293 144.44C166.429 145.278 166.393 146.114 166.186 146.946C165.989 147.786 165.614 148.581 165.061 149.333C164.507 150.085 163.886 150.663 163.197 151.069C162.501 151.483 161.789 151.742 161.062 151.844C160.345 151.954 159.671 151.914 159.042 151.726L159.479 149.419C160.169 149.623 160.856 149.614 161.54 149.393C162.224 149.173 162.815 148.724 163.313 148.047C163.797 147.389 164.07 146.693 164.133 145.957C164.19 145.231 164.049 144.527 163.712 143.844C163.367 143.17 162.828 142.564 162.095 142.025C161.362 141.486 160.615 141.153 159.853 141.027C159.094 140.917 158.373 141.002 157.689 141.281C157.006 141.561 156.422 142.029 155.938 142.687C155.544 143.223 155.285 143.792 155.16 144.395C155.044 145.005 155.078 145.588 155.263 146.144C155.457 146.707 155.822 147.185 156.358 147.579L157.161 148.17L155.757 148.484L158.619 144.594L160.24 145.787L156.611 150.72L155.554 149.942C154.746 149.348 154.132 148.686 153.712 147.957C153.292 147.228 153.044 146.474 152.967 145.693C152.892 144.928 152.961 144.175 153.173 143.433C153.395 142.699 153.734 142.021 154.191 141.401Z" fill="black"/>
<path d="M149.814 147.094L158.793 156.545L152.513 162.511L151.067 160.988L155.621 156.662L153.319 154.239L149.019 158.324L147.573 156.802L151.873 152.716L149.535 150.255L144.981 154.582L143.535 153.06L149.814 147.094Z" fill="black"/>
<path d="M139.93 155.693L146.069 164.744L148.864 162.848L150.043 164.586L142.513 169.694L141.334 167.956L144.086 166.09L137.946 157.039L139.93 155.693Z" fill="black"/>
<path d="M123.149 164.312C123.927 164.027 124.702 163.903 125.474 163.942C126.236 163.986 126.95 164.17 127.617 164.497C128.277 164.839 128.841 165.308 129.31 165.907L127.75 167.394C127.197 166.802 126.566 166.406 125.859 166.206C125.156 166.017 124.454 166.051 123.753 166.309C123.359 166.454 123.041 166.639 122.801 166.864C122.554 167.104 122.394 167.362 122.321 167.637C122.237 167.917 122.252 168.21 122.364 168.516C122.497 168.877 122.715 169.133 123.019 169.282C123.315 169.447 123.701 169.516 124.177 169.49L126.803 169.382C127.864 169.328 128.744 169.508 129.444 169.922C130.143 170.336 130.639 170.943 130.933 171.742C131.191 172.443 131.248 173.124 131.106 173.785C130.953 174.45 130.624 175.043 130.12 175.564C129.608 176.1 128.953 176.515 128.154 176.809C127.42 177.079 126.699 177.195 125.989 177.158C125.283 177.131 124.627 176.969 124.02 176.67C123.406 176.386 122.877 175.978 122.432 175.445L123.97 173.948C124.436 174.472 124.97 174.81 125.573 174.962C126.179 175.124 126.8 175.088 127.435 174.855C127.808 174.718 128.112 174.532 128.348 174.295C128.589 174.07 128.749 173.813 128.828 173.522C128.901 173.247 128.881 172.956 128.769 172.65C128.644 172.31 128.424 172.049 128.108 171.867C127.796 171.696 127.39 171.621 126.889 171.644L124.379 171.765C123.288 171.806 122.399 171.636 121.712 171.254C121.014 170.877 120.514 170.278 120.212 169.457C119.954 168.756 119.908 168.071 120.072 167.401C120.236 166.732 120.579 166.127 121.101 165.587C121.624 165.047 122.306 164.622 123.149 164.312Z" fill="black"/>
<path d="M114.498 167.031L116.595 177.764L119.91 177.117L120.312 179.178L111.382 180.922L110.98 178.862L114.243 178.224L112.146 167.491L114.498 167.031Z" fill="black"/>
<path d="M107.909 168.354L103.79 181.514L100.712 181.603L95.8405 168.702L98.4292 168.628L99.4369 171.399L104.474 171.254L105.338 168.428L107.909 168.354ZM103.853 173.373L100.18 173.479L102.536 179.905L101.871 179.924L103.853 173.373Z" fill="black"/>
<path d="M94.3721 168.457L92.4688 181.354L87.6737 180.646C86.7966 180.516 86.0473 180.241 85.4256 179.819C84.7907 179.407 84.328 178.867 84.0374 178.199C83.7452 177.543 83.6629 176.782 83.7906 175.916C83.9218 175.027 84.2469 174.303 84.7658 173.743C85.2733 173.181 85.9069 172.803 86.6667 172.608L84.4705 166.996L87.1363 167.389L89.4687 173.517L88.0782 172.392L91.3153 172.87L92.0179 168.11L94.3721 168.457ZM91.0087 174.947L88.5333 174.582C88.1063 174.519 87.7251 174.545 87.3896 174.661C87.0525 174.788 86.7752 174.989 86.5578 175.263C86.3405 175.538 86.2028 175.871 86.1449 176.264C86.0853 176.667 86.1207 177.026 86.2513 177.341C86.3801 177.666 86.5884 177.933 86.8761 178.14C87.1622 178.359 87.5187 178.5 87.9457 178.563L90.4211 178.929L91.0087 174.947Z" fill="black"/>
<path d="M80.7938 165.813L77.3805 176.203L80.5889 177.257L79.9336 179.252L71.2891 176.412L71.9444 174.417L75.103 175.455L78.5163 165.065L80.7938 165.813Z" fill="black"/>
<path d="M72.0853 162.677L66.0352 174.225L58.3629 170.205L59.3374 168.345L64.9017 171.26L66.4528 168.3L61.1985 165.547L62.173 163.687L67.4274 166.44L69.0028 163.433L63.4385 160.518L64.413 158.658L72.0853 162.677Z" fill="black"/>
<path d="M62.5696 157.514L54.6094 167.838L51.2421 165.241C50.152 164.401 49.3761 163.449 48.9143 162.386C48.4361 161.325 48.2745 160.235 48.4294 159.118C48.5772 158.009 49.0429 156.946 49.8264 155.93C50.6029 154.923 51.5155 154.198 52.5644 153.755C53.6062 153.321 54.7045 153.195 55.8594 153.379C56.9979 153.564 58.1122 154.077 59.2023 154.918L62.5696 157.514ZM59.4028 157.724L57.8785 156.549C57.1764 156.007 56.4609 155.684 55.732 155.579C54.9868 155.475 54.2715 155.572 53.5862 155.868C52.8938 156.174 52.2733 156.683 51.7249 157.394C51.1692 158.115 50.8352 158.844 50.7227 159.582C50.6101 160.32 50.7021 161.032 50.9986 161.717C51.2859 162.395 51.7806 163.005 52.4827 163.547L54.007 164.722L59.4028 157.724Z" fill="black"/>
<path d="M42.6672 147.91L42.7115 149.649L40.5599 149.704L41.2565 151.711L39.625 152.293L38.9147 150.296L37.1466 151.671L36.0724 150.289L37.8405 148.915L36.0803 147.734L37.0458 146.296L38.8198 147.466L39.4031 145.394L41.0882 145.879L40.5048 147.951L42.6672 147.91Z" fill="black"/>
<path d="M37.2943 126.258C37.6602 127.117 37.8431 127.977 37.8429 128.84C37.8427 129.702 37.6802 130.526 37.3554 131.311C37.0306 132.096 36.5589 132.804 35.9404 133.436C35.3172 134.056 34.5603 134.556 33.6696 134.936C32.7789 135.316 31.8962 135.521 31.0215 135.551C30.1315 135.575 29.2985 135.436 28.5225 135.132C27.7312 134.823 27.0298 134.367 26.4184 133.766C25.7961 133.168 25.3021 132.441 24.9362 131.582C24.5703 130.724 24.3882 129.895 24.3898 129.095C24.3868 128.285 24.5262 127.541 24.8078 126.863C25.0788 126.189 25.4552 125.629 25.9371 125.183L27.7008 126.733C27.1744 127.223 26.8324 127.819 26.6748 128.521C26.5171 129.222 26.6029 129.959 26.9322 130.731C27.2524 131.483 27.713 132.073 28.3141 132.501C28.9107 132.919 29.5888 133.156 30.3484 133.213C31.1035 133.259 31.8995 133.103 32.7366 132.747C33.5736 132.39 34.2401 131.916 34.7361 131.324C35.2167 130.726 35.5106 130.062 35.6178 129.331C35.7249 128.601 35.6184 127.86 35.2983 127.109C35.0376 126.497 34.6794 125.984 34.2238 125.57C33.7575 125.16 33.238 124.893 32.6653 124.769C32.082 124.65 31.4845 124.721 30.8728 124.982L29.9552 125.373L30.3991 124.004L32.2926 128.447L30.4414 129.236L28.0403 123.602L29.2476 123.087C30.1705 122.694 31.0524 122.502 31.8933 122.511C32.7342 122.521 33.5104 122.691 34.222 123.022C34.9183 123.346 35.5317 123.789 36.0621 124.349C36.5817 124.913 36.9925 125.55 37.2943 126.258Z" fill="black"/>
<path d="M34.6246 119.597L21.9141 122.492L19.9903 114.047L22.0377 113.581L23.4329 119.706L26.6915 118.963L25.3741 113.18L27.4214 112.713L28.7389 118.497L32.0487 117.743L30.6535 111.618L32.7009 111.152L34.6246 119.597Z" fill="black"/>
<path d="M32.2905 106.743L21.3738 107.399L21.5765 110.77L19.4805 110.896L18.9345 101.814L21.0305 101.688L21.23 105.006L32.1466 104.35L32.2905 106.743Z" fill="black"/>
<path d="M33.4397 87.8074C33.2895 88.6219 33.0007 89.3516 32.5733 89.9963C32.1481 90.6296 31.6251 91.15 31.0043 91.5574C30.3741 91.9513 29.6822 92.1973 28.9286 92.2956L28.4441 90.1955C29.2355 90.0212 29.8973 89.6807 30.4297 89.1739C30.9506 88.665 31.2788 88.0435 31.4142 87.3093C31.4904 86.8963 31.4929 86.529 31.4217 86.2075C31.3412 85.8723 31.201 85.6033 31.0012 85.4004C30.8035 85.186 30.544 85.0491 30.2228 84.9899C29.8442 84.9201 29.5133 84.9777 29.2301 85.1627C28.9375 85.3341 28.6811 85.6308 28.461 86.0528L27.2155 88.3675C26.7217 89.3084 26.1184 89.9741 25.4059 90.3646C24.6933 90.7551 23.9182 90.8731 23.0808 90.7187C22.3466 90.5832 21.7312 90.2859 21.2347 89.8266C20.7403 89.3558 20.3975 88.7706 20.2062 88.071C20.0056 87.3579 19.9826 86.5826 20.137 85.7451C20.2788 84.9765 20.5466 84.2964 20.9404 83.7047C21.3228 83.111 21.7972 82.6291 22.3637 82.2591C22.9208 81.8755 23.5417 81.6283 24.2264 81.5173L24.7313 83.6033C24.0424 83.7372 23.4792 84.0248 23.042 84.466C22.5932 84.9052 22.3075 85.4575 22.1848 86.1229C22.1128 86.5129 22.1182 86.8698 22.2008 87.1934C22.272 87.515 22.4122 87.784 22.6213 88.0005C22.8211 88.2034 23.0817 88.3345 23.4029 88.3938C23.7585 88.4594 24.0951 88.4028 24.4128 88.2242C24.719 88.0434 24.99 87.7316 25.2259 87.2888L26.4007 85.0678C26.9217 84.1082 27.5213 83.4299 28.1995 83.0331C28.8797 82.6248 29.6501 82.4999 30.5105 82.6586C31.2447 82.7941 31.8579 83.1029 32.3502 83.5852C32.8425 84.0674 33.1879 84.6709 33.3864 85.3955C33.5849 86.1201 33.6026 86.9241 33.4397 87.8074Z" fill="black"/>
<path d="M35.5079 78.9882L25.2036 75.3242L24.0722 78.5062L22.0938 77.8027L25.1422 69.2295L27.1206 69.933L26.0067 73.0655L36.3111 76.7295L35.5079 78.9882Z" fill="black"/>
<path d="M37.7264 72.63L28.5168 62.3662L30.0129 59.6744L43.592 62.0768L42.3339 64.3404L39.4362 63.7909L36.988 68.1957L38.976 70.3817L37.7264 72.63ZM35.4842 66.5791L37.2693 63.3673L30.541 62.11L30.864 61.5288L35.4842 66.5791Z" fill="black"/>
<path d="M44.5013 61.0268L34.3867 52.8027L37.4445 49.042C38.0039 48.3541 38.6237 47.8507 39.3039 47.5318C39.9825 47.1965 40.6831 47.0746 41.4056 47.1659C42.1192 47.2499 42.8153 47.5679 43.4942 48.1199C44.1911 48.6865 44.6478 49.336 44.8643 50.0683C45.0881 50.7916 45.0895 51.5294 44.8686 52.2819L50.8156 53.261L49.1156 55.3518L42.6559 54.2266L44.3333 53.6059L42.269 56.1447L46.0026 59.1804L44.5013 61.0268ZM40.6398 54.82L42.2184 52.8785C42.4907 52.5436 42.6629 52.2025 42.7349 51.8551C42.7978 51.5003 42.7668 51.1594 42.6419 50.8323C42.5169 50.5052 42.3006 50.2165 41.9929 49.9663C41.6761 49.7087 41.3493 49.5558 41.0127 49.5076C40.667 49.452 40.3314 49.4949 40.006 49.6362C39.6715 49.7702 39.3681 50.0047 39.0958 50.3396L37.5172 52.281L40.6398 54.82Z" fill="black"/>
<path d="M53.7072 50.6973L46.5021 42.47L43.9615 44.6949L42.5781 43.1152L49.4233 37.1206L50.8067 38.7002L48.3056 40.8906L55.5107 49.118L53.7072 50.6973Z" fill="black"/>
<path d="M60.8427 44.7933L53.9688 33.7168L61.3283 29.1495L62.4355 30.9336L57.098 34.2461L58.8603 37.0858L63.9005 33.9579L65.0077 35.7421L59.9675 38.87L61.7575 41.7543L67.0951 38.4419L68.2023 40.226L60.8427 44.7933Z" fill="black"/>
<path d="M70.1315 39.2104L65.293 27.1055L69.2413 25.5272C70.5195 25.0163 71.7337 24.8325 72.8839 24.9757C74.0406 25.1038 75.0608 25.5189 75.9445 26.221C76.8238 26.9122 77.5016 27.8536 77.9779 29.0451C78.4498 30.2258 78.6098 31.3805 78.4579 32.509C78.3017 33.6268 77.8509 34.6361 77.1055 35.5371C76.3666 36.4229 75.358 37.1212 74.0799 37.6322L70.1315 39.2104ZM71.5619 36.3773L73.3492 35.6629C74.1725 35.3338 74.8149 34.8823 75.2764 34.3084C75.7445 33.7193 76.0251 33.0543 76.1185 32.3135C76.2075 31.5618 76.0853 30.769 75.7519 29.9349C75.4141 29.09 74.9561 28.4314 74.3779 27.959C73.7996 27.4866 73.1401 27.2038 72.3992 27.1104C71.6693 27.0128 70.8926 27.1285 70.0694 27.4575L68.2821 28.172L71.5619 36.3773Z" fill="black"/>
<path d="M88.3802 27.0344L86.8469 26.2132L87.863 24.3158L85.7737 23.9286L86.0749 22.2231L88.1617 22.5929L87.8409 20.3762L89.5727 20.1256L89.8935 22.3422L91.7898 21.3959L92.5622 22.9461L90.6685 23.9097L92.1808 25.4412L90.9259 26.666L89.4136 25.1345L88.3802 27.0344Z" fill="black"/>
</svg>
