<svg width="121" height="121" viewBox="0 0 121 121" fill="none" xmlns="http://www.w3.org/2000/svg">
<path d="M66.3951 11.0572C65.7099 10.9896 65.0883 10.803 64.5303 10.4972C63.9724 10.1914 63.4969 9.79425 63.104 9.3058C62.711 8.81735 62.4199 8.26109 62.2306 7.63703C62.0499 7.01382 61.9945 6.34675 62.0646 5.63582C62.1346 4.92489 62.3148 4.28103 62.6052 3.70425C62.905 3.11974 63.2905 2.63017 63.7618 2.23554C64.2425 1.83319 64.786 1.5408 65.392 1.35837C65.999 1.16737 66.645 1.10563 67.3303 1.17316C68.0155 1.24069 68.6165 1.41668 69.1334 1.70112C69.6588 1.98641 70.0909 2.34035 70.4298 2.76293C70.7695 3.17695 70.9984 3.61897 71.1164 4.08897L69.4884 4.68095C69.3574 4.16643 69.093 3.73389 68.6952 3.38333C68.2973 3.03277 67.79 2.8271 67.1733 2.76633C66.5737 2.70724 66.0287 2.79624 65.5383 3.03331C65.0565 3.27123 64.6626 3.62593 64.3567 4.0974C64.0594 4.56971 63.8778 5.13992 63.8119 5.80802C63.7461 6.47612 63.8167 7.07551 64.0239 7.6062C64.2405 8.12916 64.5661 8.55476 65.0008 8.883C65.4354 9.21124 65.9526 9.4049 66.5521 9.46399C67.0404 9.51211 67.4993 9.4622 67.929 9.31428C68.3596 9.15779 68.7164 8.9162 68.9994 8.5895C69.2832 8.25423 69.4492 7.84248 69.4973 7.35425L69.5695 6.62191L70.2977 7.39421L66.7516 7.04475L66.8972 5.56722L71.3941 6.01037L71.2991 6.97398C71.2265 7.71061 71.0382 8.34934 70.7341 8.89018C70.43 9.43101 70.0448 9.87305 69.5785 10.2163C69.1217 10.5518 68.618 10.7919 68.0676 10.9366C67.5179 11.0727 66.9605 11.1129 66.3951 11.0572Z" fill="#BFF747"/>
<path d="M71.6382 11.6861L74.2617 2.43262L80.41 4.17578L79.9874 5.66628L75.5284 4.40204L74.8557 6.77441L79.0664 7.96821L78.6438 9.45871L74.4332 8.2649L73.75 10.6745L78.209 11.9388L77.7865 13.4293L71.6382 11.6861Z" fill="#BFF747"/>
<path d="M80.8023 14.7282L84.2507 7.43329L81.9981 6.36841L82.6602 4.96777L88.7296 7.83688L88.0675 9.23751L85.8498 8.18919L82.4014 15.4841L80.8023 14.7282Z" fill="#BFF747"/>
<path d="M92.5825 22.1659C92.1091 21.7795 91.7398 21.3335 91.4747 20.8281C91.2162 20.3282 91.0654 19.8051 91.0225 19.259C90.9916 18.7115 91.0783 18.1767 91.2824 17.6545L92.8126 18.0871C92.6442 18.6608 92.6293 19.2097 92.768 19.734C92.912 20.2516 93.1974 20.6846 93.6241 21.033C93.8641 21.229 94.1007 21.361 94.3339 21.4292C94.5793 21.4962 94.803 21.5011 95.0052 21.444C95.2141 21.3923 95.3947 21.2731 95.5472 21.0864C95.7268 20.8664 95.8071 20.632 95.788 20.3831C95.7811 20.133 95.6803 19.8618 95.4856 19.5695L94.4311 17.9419C93.9981 17.2883 93.7818 16.6618 93.7824 16.0622C93.783 15.4627 93.982 14.9196 94.3793 14.4329C94.7277 14.0062 95.1386 13.7139 95.612 13.556C96.092 13.4035 96.5922 13.3896 97.1126 13.5144C97.645 13.638 98.1546 13.8985 98.6413 14.2959C99.0879 14.6606 99.4326 15.0753 99.6754 15.5402C99.9235 15.9983 100.067 16.4763 100.105 16.974C100.155 17.4705 100.094 17.9599 99.9227 18.4421L98.3944 18.0277C98.5526 17.5346 98.5666 17.0683 98.4366 16.6288C98.312 16.1826 98.0563 15.8016 97.6696 15.4859C97.4429 15.3009 97.2103 15.1776 96.9716 15.116C96.7384 15.0479 96.5146 15.0429 96.3003 15.1013C96.0981 15.1584 95.9208 15.2803 95.7684 15.467C95.5997 15.6737 95.5166 15.9115 95.5193 16.1803C95.5275 16.4426 95.6328 16.7286 95.8354 17.0384L96.8544 18.587C97.2899 19.2648 97.5156 19.8935 97.5313 20.473C97.5537 21.058 97.3608 21.6005 96.9526 22.1005C96.6042 22.5272 96.1866 22.8141 95.6999 22.9611C95.2132 23.1082 94.7002 23.1172 94.1611 22.9882C93.622 22.8591 93.0958 22.5851 92.5825 22.1659Z" fill="#BFF747"/>
<path d="M97.5466 26.6182L103.564 21.2418L101.903 19.3838L103.059 18.3516L107.532 23.3576L106.376 24.3899L104.742 22.5608L98.7251 27.9371L97.5466 26.6182Z" fill="#BFF747"/>
<path d="M100.88 30.3084L110.78 27.9616L111.997 29.8808L105.649 37.8324L104.626 36.2186L106.005 34.5348L104.014 31.3943L101.896 31.9113L100.88 30.3084ZM105.592 30.9902L107.044 33.2801L110.232 29.3637L110.495 29.7781L105.592 30.9902Z" fill="#BFF747"/>
<path d="M106.013 38.7994L114.914 35.1562L116.269 38.4659C116.516 39.0713 116.623 39.6507 116.589 40.204C116.567 40.7619 116.398 41.2588 116.083 41.6944C115.777 42.1268 115.325 42.4653 114.727 42.7098C114.114 42.9608 113.532 43.027 112.981 42.9083C112.434 42.7976 111.955 42.5377 111.546 42.1286L108.81 45.6339L108.057 43.7938L111.069 40.0082L110.878 41.3139L109.963 39.0796L106.678 40.4244L106.013 38.7994ZM111.397 38.4928L112.096 40.2014C112.217 40.4961 112.377 40.7282 112.577 40.8976C112.784 41.0638 113.016 41.1642 113.272 41.199C113.528 41.2337 113.791 41.1956 114.062 41.0848C114.341 40.9707 114.556 40.8131 114.706 40.6121C114.864 40.4079 114.955 40.1754 114.978 39.9147C115.01 39.6507 114.965 39.3714 114.845 39.0767L114.145 37.368L111.397 38.4928Z" fill="#BFF747"/>
<path d="M109.446 48.423L117.325 46.684L116.788 44.2509L118.301 43.917L119.748 50.4726L118.235 50.8065L117.706 48.4112L109.827 50.1502L109.446 48.423Z" fill="#BFF747"/>
<path d="M110.724 55.1122L120.328 54.5986L120.669 60.9801L119.122 61.0629L118.875 56.4347L116.412 56.5663L116.646 60.9367L115.099 61.0194L114.865 56.649L112.364 56.7828L112.612 61.411L111.065 61.4937L110.724 55.1122Z" fill="#BFF747"/>
<path d="M111.034 63.19L120.582 64.3486L120.204 67.463C120.082 68.4712 119.77 69.3221 119.27 70.0157C118.777 70.7189 118.147 71.232 117.38 71.555C116.621 71.8791 115.771 71.9841 114.831 71.87C113.9 71.757 113.096 71.4514 112.42 70.9531C111.752 70.4559 111.258 69.8065 110.939 69.0048C110.628 68.2127 110.534 67.3126 110.656 66.3044L111.034 63.19ZM112.36 65.1196L112.189 66.5294C112.11 67.1788 112.175 67.7545 112.383 68.2566C112.598 68.7682 112.929 69.1855 113.375 69.5085C113.83 69.8324 114.387 70.0343 115.045 70.1142C115.711 70.195 116.3 70.1321 116.81 69.9253C117.321 69.7185 117.738 69.3919 118.06 68.9456C118.382 68.5078 118.583 67.9642 118.661 67.3148L118.833 65.905L112.36 65.1196Z" fill="#BFF747"/>
<path d="M112.436 79.4168L113.524 78.736L114.367 80.0821L115.38 78.8862L116.362 79.7042L115.36 80.9049L116.897 81.5119L116.423 82.7127L114.886 82.1056L114.797 83.6667L113.521 83.5932L113.598 82.0273L112.063 82.4344L111.739 81.1819L113.274 80.7749L112.436 79.4168Z" fill="#BFF747"/>
<path d="M100.696 90.945C101.105 90.3904 101.582 89.9513 102.13 89.6278C102.678 89.3043 103.263 89.0983 103.883 89.01C104.504 88.9216 105.131 88.9555 105.764 89.1114C106.392 89.2744 106.994 89.5675 107.569 89.9908C108.145 90.4142 108.606 90.898 108.954 91.4422C109.303 91.9984 109.527 92.5799 109.626 93.1867C109.726 93.8055 109.7 94.422 109.547 95.0363C109.401 95.6556 109.124 96.2426 108.716 96.7972C108.308 97.3518 107.85 97.7787 107.342 98.0777C106.828 98.3837 106.303 98.5745 105.767 98.65C105.237 98.7306 104.74 98.7016 104.276 98.563L104.598 96.861C105.108 97.0112 105.615 97.0048 106.119 96.8418C106.624 96.6788 107.06 96.3477 107.427 95.8485C107.784 95.3632 107.986 94.8492 108.032 94.3065C108.074 93.7708 107.97 93.251 107.721 92.7472C107.467 92.2503 107.069 91.803 106.529 91.4051C105.988 91.0073 105.437 90.7619 104.874 90.6689C104.314 90.588 103.782 90.6506 103.278 90.8567C102.774 91.0627 102.343 91.4084 101.986 91.8937C101.695 92.2889 101.504 92.7089 101.411 93.1539C101.326 93.604 101.352 94.0341 101.488 94.4443C101.631 94.8596 101.9 95.2126 102.296 95.5033L102.888 95.9394L101.852 96.171L103.964 93.3008L105.16 94.1807L102.482 97.8204L101.702 97.2466C101.106 96.8079 100.653 96.3198 100.343 95.7821C100.034 95.2444 99.8504 94.6875 99.7935 94.1113C99.7384 93.5472 99.7892 92.9916 99.946 92.4444C100.11 91.9024 100.36 91.4026 100.696 90.945Z" fill="#BFF747"/>
<path d="M97.4652 95.1451L104.09 102.118L99.4567 106.52L98.3897 105.397L101.75 102.204L100.051 100.417L96.8785 103.431L95.8114 102.308L98.9844 99.2934L97.2593 97.4776L93.8991 100.67L92.8321 99.5467L97.4652 95.1451Z" fill="#BFF747"/>
<path d="M90.1754 101.49L94.705 108.167L96.767 106.769L97.6367 108.051L92.0809 111.819L91.2112 110.537L93.2412 109.16L88.7117 102.483L90.1754 101.49Z" fill="#BFF747"/>
<path d="M77.7949 107.849C78.3684 107.638 78.9402 107.547 79.5102 107.576C80.0721 107.608 80.5991 107.744 81.0911 107.985C81.5781 108.237 81.9944 108.584 82.3401 109.025L81.1891 110.122C80.781 109.685 80.3159 109.393 79.794 109.246C79.2751 109.106 78.7572 109.132 78.2402 109.322C77.9494 109.429 77.7153 109.565 77.5379 109.731C77.3554 109.908 77.2373 110.099 77.1836 110.302C77.1219 110.508 77.1326 110.724 77.2157 110.95C77.3137 111.217 77.4747 111.405 77.6986 111.515C77.9174 111.637 78.2022 111.688 78.5529 111.669L80.4906 111.589C81.2736 111.549 81.923 111.682 82.4388 111.987C82.9546 112.293 83.321 112.741 83.5378 113.33C83.7278 113.847 83.7704 114.35 83.6655 114.838C83.5525 115.328 83.31 115.766 82.9378 116.151C82.5605 116.546 82.0769 116.852 81.4872 117.069C80.946 117.268 80.4135 117.354 79.8899 117.326C79.3692 117.307 78.8849 117.187 78.437 116.966C77.9841 116.757 77.5936 116.455 77.2658 116.062L78.4002 114.958C78.7442 115.345 79.1385 115.594 79.583 115.706C80.0305 115.825 80.4886 115.799 80.9571 115.627C81.2318 115.526 81.4563 115.388 81.6307 115.214C81.8081 115.048 81.9261 114.858 81.9849 114.644C82.0386 114.441 82.0239 114.226 81.9408 114C81.8487 113.749 81.6862 113.557 81.4534 113.423C81.2235 113.296 80.9237 113.241 80.5539 113.258L78.7022 113.347C77.8971 113.377 77.2411 113.252 76.7342 112.97C76.2192 112.692 75.8504 112.25 75.6276 111.644C75.4375 111.127 75.403 110.622 75.5241 110.128C75.6452 109.634 75.8984 109.188 76.2838 108.789C76.6691 108.391 77.1728 108.077 77.7949 107.849Z" fill="#BFF747"/>
<path d="M71.4095 109.854L72.9567 117.774L75.4022 117.296L75.6992 118.816L69.1104 120.104L68.8133 118.583L71.2208 118.113L69.6736 110.194L71.4095 109.854Z" fill="#BFF747"/>
<path d="M66.5508 110.831L63.5115 120.541L61.2403 120.607L57.6463 111.088L59.5563 111.033L60.2998 113.078L64.0164 112.971L64.6537 110.886L66.5508 110.831ZM63.5578 114.534L60.8478 114.612L62.5861 119.354L62.0957 119.368L63.5578 114.534Z" fill="#BFF747"/>
<path d="M56.5606 110.907L55.1562 120.422L51.6184 119.9C50.9713 119.804 50.4184 119.601 49.9597 119.29C49.4913 118.985 49.1499 118.587 48.9355 118.094C48.7199 117.61 48.6592 117.049 48.7534 116.41C48.8502 115.754 49.09 115.22 49.4729 114.807C49.8473 114.392 50.3148 114.113 50.8754 113.97L49.255 109.829L51.2219 110.119L52.9428 114.64L51.9169 113.81L54.3052 114.163L54.8236 110.65L56.5606 110.907ZM54.079 115.695L52.2526 115.426C51.9376 115.379 51.6563 115.399 51.4088 115.484C51.1601 115.578 50.9555 115.726 50.7951 115.928C50.6347 116.131 50.5332 116.377 50.4904 116.666C50.4465 116.964 50.4726 117.229 50.5689 117.461C50.664 117.701 50.8176 117.898 51.0299 118.051C51.241 118.213 51.504 118.317 51.8191 118.363L53.6455 118.633L54.079 115.695Z" fill="#BFF747"/>
<path d="M46.5448 108.957L44.0264 116.623L46.3937 117.4L45.9102 118.872L39.5321 116.777L40.0156 115.305L42.3461 116.071L44.8644 108.405L46.5448 108.957Z" fill="#BFF747"/>
<path d="M40.1162 106.642L35.6523 115.162L29.9917 112.196L30.7107 110.824L34.8161 112.975L35.9605 110.791L32.0838 108.76L32.8028 107.387L36.6795 109.418L37.8419 107.2L33.7365 105.049L34.4555 103.677L40.1162 106.642Z" fill="#BFF747"/>
<path d="M33.0958 102.833L27.2227 110.45L24.7382 108.535C23.934 107.914 23.3614 107.212 23.0207 106.428C22.6679 105.645 22.5487 104.841 22.663 104.016C22.772 103.198 23.1156 102.414 23.6937 101.665C24.2666 100.922 24.94 100.387 25.7139 100.06C26.4825 99.7393 27.2929 99.6468 28.1449 99.7821C28.9849 99.919 29.8071 100.298 30.6114 100.918L33.0958 102.833ZM30.7593 102.988L29.6347 102.121C29.1167 101.721 28.5888 101.483 28.051 101.405C27.5011 101.329 26.9733 101.4 26.4677 101.619C25.9569 101.845 25.4991 102.22 25.0944 102.745C24.6845 103.276 24.438 103.814 24.355 104.359C24.272 104.904 24.3398 105.429 24.5586 105.934C24.7706 106.435 25.1356 106.885 25.6536 107.284L26.7782 108.151L30.7593 102.988Z" fill="#BFF747"/>
<path d="M18.4122 95.7469L18.4449 97.0298L16.8574 97.0704L17.3713 98.5515L16.1676 98.9806L15.6435 97.5074L14.339 98.5218L13.5465 97.5026L14.851 96.4882L13.5523 95.6173L14.2646 94.5564L15.5735 95.4194L16.0039 93.8908L17.2472 94.2487L16.8168 95.7773L18.4122 95.7469Z" fill="#BFF747"/>
<path d="M14.4499 79.7719C14.7198 80.4054 14.8547 81.0402 14.8546 81.6765C14.8544 82.3127 14.7345 82.9205 14.4949 83.4998C14.2553 84.0791 13.9073 84.6016 13.4509 85.0675C12.9911 85.5254 12.4327 85.8944 11.7755 86.1745C11.1183 86.4545 10.4671 86.6058 9.82169 86.6282C9.16504 86.6461 8.55045 86.5432 7.97792 86.3194C7.3941 86.091 6.8766 85.7549 6.42544 85.311C5.96636 84.8704 5.60184 84.3335 5.33188 83.7C5.06192 83.0666 4.92754 82.4549 4.92872 81.865C4.92654 81.2671 5.02936 80.7181 5.23718 80.2179C5.43708 79.721 5.7148 79.3079 6.07033 78.9786L7.37165 80.1222C6.98328 80.4841 6.73094 80.9238 6.61462 81.4412C6.4983 81.9586 6.56163 82.5023 6.80459 83.0724C7.0408 83.6266 7.38067 84.0618 7.82418 84.3781C8.26431 84.6863 8.76461 84.8614 9.32508 84.9032C9.88217 84.9371 10.4695 84.8224 11.0871 84.5592C11.7047 84.296 12.1964 83.9461 12.5624 83.5095C12.917 83.0683 13.1338 82.5783 13.2129 82.0393C13.292 81.5004 13.2134 80.9538 12.9772 80.3996C12.7848 79.9483 12.5206 79.5697 12.1844 79.2639C11.8403 78.9615 11.457 78.7646 11.0345 78.6733C10.6041 78.5854 10.1633 78.6377 9.71195 78.83L9.03498 79.1185L9.36249 78.1089L10.7595 81.3868L9.39371 81.9689L7.6221 77.8121L8.51286 77.4324C9.19379 77.1422 9.84447 77.0006 10.4649 77.0075C11.0853 77.0144 11.6581 77.1399 12.1831 77.3839C12.6968 77.6234 13.1494 77.9498 13.5407 78.3631C13.9241 78.7797 14.2272 79.2494 14.4499 79.7719Z" fill="#BFF747"/>
<path d="M12.4795 74.857L3.10156 76.9932L1.6822 70.7622L3.19275 70.4181L4.22215 74.9371L6.62643 74.3895L5.65439 70.1222L7.16494 69.7781L8.13698 74.0454L10.579 73.4891L9.54964 68.97L11.0602 68.6259L12.4795 74.857Z" fill="#BFF747"/>
<path d="M10.756 65.3741L2.70162 65.8583L2.85114 68.3455L1.30469 68.4385L0.901844 61.7372L2.4483 61.6442L2.59549 64.0928L10.6499 63.6086L10.756 65.3741Z" fill="#BFF747"/>
<path d="M11.6042 51.4032C11.4933 52.0041 11.2803 52.5425 10.965 53.0182C10.6512 53.4854 10.2653 53.8694 9.80729 54.17C9.34234 54.4606 8.83187 54.6421 8.27587 54.7146L7.91839 53.1652C8.50225 53.0365 8.99057 52.7853 9.38337 52.4114C9.7677 52.0359 10.0098 51.5773 10.1097 51.0356C10.166 50.7309 10.1678 50.4599 10.1153 50.2227C10.0559 49.9754 9.95245 49.7769 9.80503 49.6272C9.65916 49.469 9.46773 49.3681 9.23074 49.3244C8.95142 49.2728 8.70728 49.3153 8.49831 49.4518C8.28243 49.5783 8.09327 49.7972 7.93081 50.1086L7.0119 51.8164C6.64754 52.5106 6.20248 53.0018 5.67672 53.2899C5.15096 53.578 4.57915 53.6651 3.96127 53.5511C3.41956 53.4512 2.96554 53.2318 2.5992 52.8929C2.23442 52.5456 1.98147 52.1138 1.84037 51.5977C1.69237 51.0715 1.67535 50.4995 1.78932 49.8816C1.89393 49.3145 2.09151 48.8127 2.38208 48.3762C2.66419 47.9381 3.01421 47.5826 3.43215 47.3096C3.84319 47.0265 4.30132 46.8441 4.80654 46.7623L5.17905 48.3013C4.67072 48.4001 4.25524 48.6123 3.93262 48.9379C3.60154 49.2619 3.39072 49.6694 3.30017 50.1603C3.24709 50.4481 3.25103 50.7114 3.31201 50.9502C3.36452 51.1874 3.46794 51.3859 3.62227 51.5456C3.76969 51.6954 3.96191 51.7921 4.1989 51.8358C4.46129 51.8842 4.70966 51.8425 4.94403 51.7107C5.16993 51.5773 5.3699 51.3472 5.54394 51.0205L6.41072 49.3818C6.79513 48.6738 7.23751 48.1734 7.73788 47.8806C8.2398 47.5793 8.80817 47.4873 9.44298 47.6043C9.98468 47.7043 10.4371 47.9321 10.8004 48.288C11.1636 48.6438 11.4184 49.089 11.5649 49.6236C11.7113 50.1583 11.7244 50.7514 11.6042 51.4032Z" fill="#BFF747"/>
<path d="M13.1315 44.8961L5.52887 42.1928L4.69409 44.5405L3.23438 44.0215L5.48352 37.6961L6.94323 38.2151L6.12143 40.5263L13.7241 43.2296L13.1315 44.8961Z" fill="#BFF747"/>
<path d="M14.7663 40.2049L7.97129 32.6321L9.07517 30.6461L19.094 32.4186L18.1657 34.0887L16.0278 33.6833L14.2215 36.9332L15.6883 38.5461L14.7663 40.2049ZM13.1119 35.7405L14.4291 33.3707L9.4648 32.4431L9.70313 32.0143L13.1119 35.7405Z" fill="#BFF747"/>
<path d="M19.7673 31.644L12.3047 25.5762L14.5608 22.8015C14.9735 22.2939 15.4307 21.9225 15.9327 21.6872C16.4333 21.4398 16.9502 21.3499 17.4833 21.4173C18.0098 21.4792 18.5234 21.7138 19.0243 22.1211C19.5385 22.5392 19.8754 23.0184 20.0351 23.5587C20.2003 24.0923 20.2013 24.6367 20.0383 25.1919L24.4261 25.9143L23.1718 27.4569L18.4058 26.6267L19.6434 26.1687L18.1204 28.0419L20.875 30.2817L19.7673 31.644ZM16.9183 27.0645L18.083 25.6321C18.2839 25.385 18.4109 25.1333 18.464 24.877C18.5105 24.6152 18.4876 24.3637 18.3954 24.1223C18.3033 23.881 18.1436 23.668 17.9166 23.4834C17.6829 23.2934 17.4418 23.1805 17.1934 23.145C16.9383 23.104 16.6907 23.1356 16.4506 23.2399C16.2039 23.3387 15.98 23.5117 15.7791 23.7588L14.6144 25.1912L16.9183 27.0645Z" fill="#BFF747"/>
<path d="M26.5589 24.0229L21.2428 17.9526L19.3683 19.5942L18.3477 18.4287L23.3981 14.0058L24.4188 15.1713L22.5734 16.7873L27.8895 22.8576L26.5589 24.0229Z" fill="#BFF747"/>
<path d="M31.8217 19.6665L26.75 11.4941L32.18 8.12434L32.9969 9.4407L29.0588 11.8847L30.3591 13.9799L34.0778 11.672L34.8947 12.9884L31.176 15.2962L32.4967 17.4243L36.4348 14.9804L37.2517 16.2967L31.8217 19.6665Z" fill="#BFF747"/>
<path d="M38.6754 15.5474L35.1055 6.61621L38.0186 5.45178C38.9616 5.07482 39.8575 4.93918 40.7062 5.04487C41.5596 5.13938 42.3123 5.44562 42.9643 5.96362C43.613 6.47362 44.1131 7.16818 44.4645 8.04731C44.8128 8.91845 44.9308 9.77035 44.8187 10.603C44.7035 11.4277 44.3708 12.1724 43.8209 12.8371C43.2757 13.4907 42.5316 14.006 41.5885 14.3829L38.6754 15.5474ZM39.7308 13.4571L41.0495 12.93C41.6569 12.6872 42.1308 12.3541 42.4714 11.9306C42.8167 11.496 43.0238 11.0053 43.0927 10.4588C43.1583 9.90418 43.0682 9.31919 42.8222 8.7038C42.573 8.08042 42.2351 7.59447 41.8084 7.24594C41.3818 6.89742 40.8952 6.68873 40.3486 6.61987C39.81 6.54782 39.237 6.63319 38.6296 6.87598L37.3109 7.40309L39.7308 13.4571Z" fill="#BFF747"/>
<path d="M52.1384 6.56339L51.0071 5.95749L51.7568 4.55754L50.2153 4.2719L50.4375 3.01352L51.9772 3.28638L51.7405 1.65089L53.0182 1.46596L53.2549 3.10144L54.654 2.40323L55.2239 3.54696L53.8267 4.25795L54.9425 5.38789L54.0167 6.29154L52.9008 5.1616L52.1384 6.56339Z" fill="#BFF747"/>
<path d="M69.2498 55.2354L51.0555 73.4298L48.0664 70.4407L66.2586 52.2464H50.2247V48.0186H73.4776V71.2715H69.2498V55.2354Z" fill="white"/>
</svg>
