<svg width="30" height="31" viewBox="0 0 30 31" fill="none" xmlns="http://www.w3.org/2000/svg">
<path d="M18.2148 20.4104C18.7832 20.4104 19.3282 20.1847 19.7301 19.7828C20.1319 19.3809 20.3577 18.8359 20.3577 18.2676" stroke="#BFF747" stroke-width="1.5" stroke-linecap="round" stroke-linejoin="round"/>
<path d="M9.64062 20.4102H12.8549" stroke="#BFF747" stroke-width="1.5" stroke-linecap="round" stroke-linejoin="round"/>
<path d="M20.3555 9.69531V12.9096" stroke="#BFF747" stroke-width="1.5" stroke-linecap="round" stroke-linejoin="round"/>
<path d="M11.7835 9.69531C11.2152 9.69531 10.6701 9.92108 10.2683 10.3229C9.86639 10.7248 9.64062 11.2698 9.64062 11.8382" stroke="#BFF747" stroke-width="1.5" stroke-linecap="round" stroke-linejoin="round"/>
<path d="M1.07031 3.26786C1.07031 2.69954 1.29608 2.15449 1.69794 1.75263C2.0998 1.35076 2.64485 1.125 3.21317 1.125H18.2132C18.7815 1.125 19.3265 1.35076 19.7284 1.75263C20.1303 2.15449 20.356 2.69954 20.356 3.26786V9.69643H26.7846C27.3529 9.69643 27.898 9.92219 28.2998 10.3241C28.7017 10.7259 28.9275 11.271 28.9275 11.8393V26.8393C28.9275 27.4076 28.7017 27.9526 28.2998 28.3545C27.898 28.7564 27.3529 28.9821 26.7846 28.9821H11.7846C11.2163 28.9821 10.6712 28.7564 10.2694 28.3545C9.86751 27.9526 9.64174 27.4076 9.64174 26.8393V20.4107H3.21317C2.64485 20.4107 2.0998 20.1849 1.69794 19.7831C1.29608 19.3812 1.07031 18.8362 1.07031 18.2679V3.26786Z" stroke="#BFF747" stroke-width="1.5" stroke-linecap="round" stroke-linejoin="round"/>
<path d="M17.1406 9.69531H20.3549" stroke="#BFF747" stroke-width="1.5" stroke-linecap="round" stroke-linejoin="round"/>
<path d="M9.64062 17.1953V20.4096" stroke="#BFF747" stroke-width="1.5" stroke-linecap="round" stroke-linejoin="round"/>
</svg>
