<svg width="31" height="31" viewBox="0 0 31 31" fill="none" xmlns="http://www.w3.org/2000/svg">
<g clip-path="url(#clip0_1283_630)">
<path d="M12.0145 17.9629H2.90737C2.31563 17.9629 1.83594 18.4426 1.83594 19.0343V28.1415C1.83594 28.7332 2.31563 29.2129 2.90737 29.2129H12.0145C12.6062 29.2129 13.0859 28.7332 13.0859 28.1415V19.0343C13.0859 18.4426 12.6062 17.9629 12.0145 17.9629Z" stroke="#BFF747" stroke-width="1.5" stroke-linecap="round" stroke-linejoin="round"/>
<path d="M28.62 17.9629H19.5128C18.9211 17.9629 18.4414 18.4426 18.4414 19.0343V28.1415C18.4414 28.7332 18.9211 29.2129 19.5128 29.2129H28.62C29.2117 29.2129 29.6914 28.7332 29.6914 28.1415V19.0343C29.6914 18.4426 29.2117 17.9629 28.62 17.9629Z" stroke="#BFF747" stroke-width="1.5" stroke-linecap="round" stroke-linejoin="round"/>
<path d="M20.327 1.35547H11.2199C10.6281 1.35547 10.1484 1.83516 10.1484 2.4269V11.534C10.1484 12.1258 10.6281 12.6055 11.2199 12.6055H20.327C20.9187 12.6055 21.3984 12.1258 21.3984 11.534V2.4269C21.3984 1.83516 20.9187 1.35547 20.327 1.35547Z" stroke="#BFF747" stroke-width="1.5" stroke-linecap="round" stroke-linejoin="round"/>
</g>
<defs>
<clipPath id="clip0_1283_630">
<rect width="30" height="30" fill="white" transform="translate(0.765625 0.285156)"/>
</clipPath>
</defs>
</svg>
