<svg width="31" height="31" viewBox="0 0 31 31" fill="none" xmlns="http://www.w3.org/2000/svg">
<g clip-path="url(#clip0_1399_1271)">
<path d="M7.34598 13.0084C10.6005 13.0084 13.2388 10.37 13.2388 7.11551C13.2388 3.86098 10.6005 1.22266 7.34598 1.22266C4.09145 1.22266 1.45312 3.86098 1.45312 7.11551C1.45312 10.37 4.09145 13.0084 7.34598 13.0084Z" stroke="#BFF747" stroke-width="1.5" stroke-linecap="round" stroke-linejoin="round"/>
<path d="M23.4163 13.0084C26.6708 13.0084 29.3092 10.37 29.3092 7.11551C29.3092 3.86098 26.6708 1.22266 23.4163 1.22266C20.1618 1.22266 17.5234 3.86098 17.5234 7.11551C17.5234 10.37 20.1618 13.0084 23.4163 13.0084Z" stroke="#BFF747" stroke-width="1.5" stroke-linecap="round" stroke-linejoin="round"/>
<path d="M7.34598 29.0806C10.6005 29.0806 13.2388 26.4423 13.2388 23.1878C13.2388 19.9332 10.6005 17.2949 7.34598 17.2949C4.09145 17.2949 1.45312 19.9332 1.45312 23.1878C1.45312 26.4423 4.09145 29.0806 7.34598 29.0806Z" stroke="#BFF747" stroke-width="1.5" stroke-linecap="round" stroke-linejoin="round"/>
<path d="M23.4163 29.0806C26.6708 29.0806 29.3092 26.4423 29.3092 23.1878C29.3092 19.9332 26.6708 17.2949 23.4163 17.2949C20.1618 17.2949 17.5234 19.9332 17.5234 23.1878C17.5234 26.4423 20.1618 29.0806 23.4163 29.0806Z" stroke="#BFF747" stroke-width="1.5" stroke-linecap="round" stroke-linejoin="round"/>
</g>
<defs>
<clipPath id="clip0_1399_1271">
<rect width="30" height="30" fill="white" transform="translate(0.382812 0.150391)"/>
</clipPath>
</defs>
</svg>
