<svg width="31" height="31" viewBox="0 0 31 31" fill="none" xmlns="http://www.w3.org/2000/svg">
<g clip-path="url(#clip0_1399_1256)">
<path d="M29.0575 23.2012V27.4869C29.0575 28.0552 28.8317 28.6003 28.4298 29.0021C28.028 29.404 27.4829 29.6297 26.9146 29.6297H22.6289" stroke="#BFF747" stroke-width="1.5" stroke-linecap="round" stroke-linejoin="round"/>
<path d="M22.6289 1.77344H26.9146C27.4829 1.77344 28.028 1.9992 28.4298 2.40107C28.8317 2.80293 29.0575 3.34797 29.0575 3.91629V8.20201" stroke="#BFF747" stroke-width="1.5" stroke-linecap="round" stroke-linejoin="round"/>
<path d="M1.19922 8.20201V3.91629C1.19922 3.34797 1.42498 2.80293 1.82685 2.40107C2.22871 1.9992 2.77375 1.77344 3.34208 1.77344H7.62779" stroke="#BFF747" stroke-width="1.5" stroke-linecap="round" stroke-linejoin="round"/>
<path d="M7.62779 29.6297H3.34208C2.77375 29.6297 2.22871 29.404 1.82685 29.0021C1.42498 28.6003 1.19922 28.0552 1.19922 27.4869V23.2012" stroke="#BFF747" stroke-width="1.5" stroke-linecap="round" stroke-linejoin="round"/>
<path d="M24.7701 15.702C24.7701 15.702 20.4844 22.1306 15.1272 22.1306C9.77009 22.1306 5.48438 15.702 5.48438 15.702C5.48438 15.702 9.77009 9.27344 15.1272 9.27344C20.4844 9.27344 24.7701 15.702 24.7701 15.702Z" stroke="#BFF747" stroke-width="1.5" stroke-linecap="round" stroke-linejoin="round"/>
<path d="M15.1261 16.7737C15.7178 16.7737 16.1975 16.294 16.1975 15.7023C16.1975 15.1106 15.7178 14.6309 15.1261 14.6309C14.5344 14.6309 14.0547 15.1106 14.0547 15.7023C14.0547 16.294 14.5344 16.7737 15.1261 16.7737Z" stroke="#BFF747" stroke-width="1.5" stroke-linecap="round" stroke-linejoin="round"/>
</g>
<defs>
<clipPath id="clip0_1399_1256">
<rect width="30" height="30" fill="white" transform="translate(0.128906 0.701172)"/>
</clipPath>
</defs>
</svg>
