<svg width="21" height="21" viewBox="0 0 21 21" fill="none" xmlns="http://www.w3.org/2000/svg">
<g clip-path="url(#clip0_922_639)">
<path d="M10.207 20.377C15.7204 20.377 20.207 15.8903 20.207 10.377C20.207 4.86363 15.7204 0.376953 10.207 0.376953C4.69365 0.376953 0.207031 4.86363 0.207031 10.377C0.207031 15.8903 4.69371 20.377 10.207 20.377ZM10.207 1.71026C14.987 1.71026 18.8737 5.59692 18.8737 10.377C18.8737 15.157 14.9871 19.0436 10.207 19.0436C5.427 19.0436 1.54034 15.157 1.54034 10.377C1.54034 5.59692 5.42705 1.71026 10.207 1.71026Z" fill="#BFF747"/>
<path d="M13.1224 13.5636C13.2457 13.6636 13.3924 13.7103 13.5391 13.7103C13.7357 13.7103 13.929 13.6236 14.059 13.4603C14.289 13.1736 14.2423 12.7536 13.9557 12.5236L10.8724 10.0569V5.04361C10.8724 4.67694 10.5724 4.37695 10.2057 4.37695C9.83905 4.37695 9.53906 4.67694 9.53906 5.04361V10.377C9.53906 10.5803 9.63241 10.7703 9.78906 10.8969L13.1224 13.5636Z" fill="#BFF747"/>
</g>
<defs>
<clipPath id="clip0_922_639">
<rect width="20" height="20" fill="white" transform="translate(0.207031 0.376953)"/>
</clipPath>
</defs>
</svg>
