<svg width="60" height="61" viewBox="0 0 60 61" fill="none" xmlns="http://www.w3.org/2000/svg">
<path d="M55.7154 28.5703H38.5725C37.3891 28.5703 36.4297 29.5297 36.4297 30.7132V56.4275C36.4297 57.6109 37.3891 58.5703 38.5725 58.5703H55.7154C56.8989 58.5703 57.8583 57.6109 57.8583 56.4275V30.7132C57.8583 29.5297 56.8989 28.5703 55.7154 28.5703Z" stroke="#BFF747" stroke-width="2" stroke-linecap="round" stroke-linejoin="round"/>
<path d="M55.7154 2.85547H38.5725C37.3891 2.85547 36.4297 3.81486 36.4297 4.99833V13.6126C36.4297 14.7961 37.3891 15.7555 38.5725 15.7555H55.7154C56.8989 15.7555 57.8583 14.7961 57.8583 13.6126V4.99833C57.8583 3.81486 56.8989 2.85547 55.7154 2.85547Z" stroke="#BFF747" stroke-width="2" stroke-linecap="round" stroke-linejoin="round"/>
<path d="M21.4302 2.85547H4.28739C3.10392 2.85547 2.14453 3.81486 2.14453 4.99833V30.7126C2.14453 31.8961 3.10392 32.8555 4.28739 32.8555H21.4302C22.6137 32.8555 23.5731 31.8961 23.5731 30.7126V4.99833C23.5731 3.81486 22.6137 2.85547 21.4302 2.85547Z" stroke="#BFF747" stroke-width="2" stroke-linecap="round" stroke-linejoin="round"/>
<path d="M21.4302 45.6699H4.28739C3.10392 45.6699 2.14453 46.6293 2.14453 47.8128V56.4271C2.14453 57.6105 3.10392 58.5699 4.28739 58.5699H21.4302C22.6137 58.5699 23.5731 57.6105 23.5731 56.4271V47.8128C23.5731 46.6293 22.6137 45.6699 21.4302 45.6699Z" stroke="#BFF747" stroke-width="2" stroke-linecap="round" stroke-linejoin="round"/>
</svg>
