<svg width="30" height="31" viewBox="0 0 30 31" fill="none" xmlns="http://www.w3.org/2000/svg">
<path d="M9.64174 28.7093C14.3756 28.7093 18.2132 24.8717 18.2132 20.1378C18.2132 15.404 14.3756 11.5664 9.64174 11.5664C4.90787 11.5664 1.07031 15.404 1.07031 20.1378C1.07031 24.8717 4.90787 28.7093 9.64174 28.7093Z" stroke="#BFF747" stroke-width="1.5" stroke-linecap="round" stroke-linejoin="round"/>
<path d="M20.3566 28.7093C25.0905 28.7093 28.928 24.8717 28.928 20.1378C28.928 15.404 25.0905 11.5664 20.3566 11.5664C15.6227 11.5664 11.7852 15.404 11.7852 20.1378C11.7852 24.8717 15.6227 28.7093 20.3566 28.7093Z" stroke="#BFF747" stroke-width="1.5" stroke-linecap="round" stroke-linejoin="round"/>
<path d="M14.9972 20.137C19.7311 20.137 23.5686 16.2994 23.5686 11.5656C23.5686 6.8317 19.7311 2.99414 14.9972 2.99414C10.2633 2.99414 6.42578 6.8317 6.42578 11.5656C6.42578 16.2994 10.2633 20.137 14.9972 20.137Z" stroke="#BFF747" stroke-width="1.5" stroke-linecap="round" stroke-linejoin="round"/>
</svg>
