<svg width="60" height="61" viewBox="0 0 60 61" fill="none" xmlns="http://www.w3.org/2000/svg">
<path d="M30 37.1738V58.6024" stroke="#BFF747" stroke-width="2" stroke-linecap="round" stroke-linejoin="round"/>
<path d="M19.2891 58.6035H40.7176" stroke="#BFF747" stroke-width="2" stroke-linecap="round" stroke-linejoin="round"/>
<path d="M15.0017 24.3167C11.5917 24.3167 8.32148 22.9621 5.9103 20.5509C3.49912 18.1397 2.14453 14.8695 2.14453 11.4595V7.17383H17.1445V24.3167H15.0017Z" stroke="#BFF747" stroke-width="2" stroke-linecap="round" stroke-linejoin="round"/>
<path d="M45.0022 24.3167C48.4122 24.3167 51.6824 22.9621 54.0936 20.5509C56.5048 18.1397 57.8594 14.8695 57.8594 11.4595V7.17383H42.8594V24.3167H45.0022Z" stroke="#BFF747" stroke-width="2" stroke-linecap="round" stroke-linejoin="round"/>
<path d="M42.8588 24.3172C42.8588 27.7272 41.5042 30.9974 39.093 33.4086C36.6819 35.8198 33.4116 37.1744 30.0017 37.1744C26.5917 37.1744 23.3215 35.8198 20.9103 33.4086C18.4991 30.9974 17.1445 27.7272 17.1445 24.3172V2.88867H42.8588V24.3172Z" stroke="#BFF747" stroke-width="2" stroke-linecap="round" stroke-linejoin="round"/>
</svg>
