<svg width="21" height="21" viewBox="0 0 21 21" fill="none" xmlns="http://www.w3.org/2000/svg">
<g clip-path="url(#clip0_922_628)">
<path d="M20.179 11.5105C20.1789 11.5104 20.1789 11.5103 20.1789 11.5102L16.4028 2.02882C16.3226 1.82736 16.0943 1.72902 15.8928 1.80916C15.8927 1.80921 15.8925 1.80926 15.8924 1.80935L0.573332 7.90926C0.510859 7.93625 0.456679 7.97934 0.41629 8.03411C0.288889 8.10031 0.208405 8.23135 0.207031 8.37489V18.5826C0.207031 18.7994 0.38282 18.9752 0.599637 18.9752H17.0891C17.3059 18.9752 17.4817 18.7994 17.4817 18.5826V13.0076L19.9598 12.0206C20.1612 11.9403 20.2593 11.7119 20.179 11.5105ZM16.6965 18.19H0.992242V8.7675H16.6965V18.19ZM6.75765 7.98425L13.3314 5.36479C13.9181 5.98147 14.7311 6.33197 15.5822 6.33531L16.2379 7.98425H6.75765ZM17.4817 12.1643V8.37489C17.4817 8.15808 17.3059 7.98229 17.0891 7.98229H17.0828L16.2508 5.89284C16.2416 5.87542 16.2309 5.85883 16.2187 5.84337C16.1765 5.65428 16.0014 5.52526 15.8084 5.54107C15.0164 5.61326 14.2416 5.27964 13.75 4.65456C13.6276 4.50356 13.4126 4.46602 13.2462 4.56662C13.2276 4.56883 13.2091 4.57226 13.1909 4.57683L5.16524 7.77264C5.06812 7.81072 4.99044 7.88625 4.9497 7.98229H2.51241L15.8186 2.68408L19.3045 11.4372L17.4817 12.1643Z" fill="#BFF747"/>
<path d="M2.05766 15.5396C2.81991 15.7649 3.41637 16.3606 3.64261 17.1226C3.69223 17.2889 3.8452 17.4028 4.01873 17.4029C4.03909 17.4016 4.05931 17.3986 4.07919 17.3938C4.09681 17.3989 4.11482 17.4025 4.13298 17.4048H13.5555C13.5717 17.4027 13.5877 17.3994 13.6034 17.395C13.7996 17.4427 13.9972 17.3224 14.045 17.1263C14.0451 17.1256 14.0453 17.1249 14.0455 17.1241C14.2711 16.3614 14.8677 15.7648 15.6304 15.5392C15.8154 15.4826 15.9303 15.2983 15.8997 15.1073C15.905 15.0883 15.9088 15.0688 15.9111 15.0492V11.9084C15.9088 11.8887 15.9049 11.8693 15.8994 11.8503C15.9301 11.6592 15.8151 11.4748 15.63 11.4184C14.8673 11.1928 14.2709 10.596 14.0459 9.83305C13.989 9.64681 13.8029 9.53158 13.6109 9.56373C13.5927 9.55867 13.5742 9.55499 13.5555 9.55273H4.13298C4.1132 9.55509 4.09362 9.55902 4.07448 9.56451C3.88352 9.53409 3.69929 9.64897 3.64261 9.83384C3.41681 10.5964 2.8203 11.1928 2.05766 11.4184C1.8727 11.4749 1.75776 11.6593 1.78834 11.8503C1.78323 11.8694 1.77955 11.8887 1.77734 11.9084V15.0492C1.7796 15.0677 1.78328 15.0859 1.78834 15.1038C1.75614 15.296 1.87132 15.4824 2.05766 15.5396ZM2.56255 12.0678C3.35091 11.7511 3.97574 11.1263 4.29237 10.3379H13.3957C13.7125 11.1263 14.3375 11.7511 15.1259 12.0678V14.8898C14.3378 15.2068 13.7131 15.8315 13.3961 16.6196H4.29237C3.97539 15.8315 3.35066 15.2068 2.56255 14.8898V12.0678Z" fill="#BFF747"/>
<path d="M8.84391 15.8343C10.1449 15.8343 11.1995 14.7797 11.1995 13.4787C11.1995 12.1777 10.1449 11.123 8.84391 11.123C7.54292 11.123 6.48828 12.1777 6.48828 13.4787C6.48956 14.7791 7.54346 15.833 8.84391 15.8343ZM8.84391 11.9083C9.71123 11.9083 10.4143 12.6114 10.4143 13.4787C10.4143 14.346 9.71123 15.0491 8.84391 15.0491C7.9766 15.0491 7.27349 14.346 7.27349 13.4787C7.27349 12.6114 7.9766 11.9083 8.84391 11.9083Z" fill="#BFF747"/>
<path d="M4.52641 14.0684C4.85163 14.0684 5.11532 13.8048 5.11532 13.4795C5.11532 13.1543 4.85163 12.8906 4.52641 12.8906C4.20118 12.8906 3.9375 13.1543 3.9375 13.4795C3.9375 13.8048 4.20118 14.0684 4.52641 14.0684ZM4.52641 13.2832C4.63482 13.2832 4.72271 13.3711 4.72271 13.4795C4.72271 13.5879 4.63482 13.6758 4.52641 13.6758C4.418 13.6758 4.33011 13.5879 4.33011 13.4795C4.33011 13.3711 4.418 13.2832 4.52641 13.2832Z" fill="#BFF747"/>
<path d="M13.1631 14.0684C13.4884 14.0684 13.752 13.8048 13.752 13.4795C13.752 13.1543 13.4884 12.8906 13.1631 12.8906C12.8379 12.8906 12.5742 13.1543 12.5742 13.4795C12.5742 13.8048 12.8379 14.0684 13.1631 14.0684ZM13.1631 13.2832C13.2715 13.2832 13.3594 13.3711 13.3594 13.4795C13.3594 13.5879 13.2715 13.6758 13.1631 13.6758C13.0547 13.6758 12.9668 13.5879 12.9668 13.4795C12.9668 13.3711 13.0547 13.2832 13.1631 13.2832Z" fill="#BFF747"/>
</g>
<defs>
<clipPath id="clip0_922_628">
<rect width="20" height="20" fill="white" transform="translate(0.207031 0.376953)"/>
</clipPath>
</defs>
</svg>
