<svg width="30" height="30" viewBox="0 0 30 30" fill="none" xmlns="http://www.w3.org/2000/svg">
<path fill-rule="evenodd" clip-rule="evenodd" d="M11.0921 6.87751H27.7464L17.8546 13.4075L11.1261 8.96575C11.3822 8.3052 11.3844 7.55855 11.0921 6.87751ZM6.73639 10.6676L9.16393 9.24426C9.88433 8.82187 10.1235 7.92067 9.7017 7.21724L7.51012 3.56189C7.2853 3.18685 6.94498 2.94558 6.50635 2.85023C6.06765 2.75481 5.65281 2.83183 5.28238 3.07744L1.28558 5.72731C-0.616893 12.1824 7.93247 26.1574 14.4893 27.7498L18.8708 25.7417C19.277 25.5555 19.5537 25.248 19.6872 24.8345C19.8208 24.421 19.7739 24.0165 19.549 23.6415L17.3574 19.9862C16.9357 19.2828 16.0057 19.0315 15.2656 19.4212L12.7718 20.7339C10.3056 18.6218 7.40284 13.7803 6.73639 10.6676ZM28.9561 7.71733L18.2502 14.7849C17.9997 14.9494 17.6777 14.9367 17.445 14.7755L10.3376 10.0836C10.2029 10.2005 10.0554 10.307 9.89524 10.4009L8.35985 11.3011C9.1665 13.808 11.1625 17.1371 13.0137 19.0632L14.591 18.2329C16.0003 17.4911 17.7721 17.9697 18.5752 19.3091L19.9343 21.576H27.8509C28.4759 21.576 28.9873 21.0835 28.9873 20.4815V7.9719C28.9874 7.88434 28.9764 7.79908 28.9561 7.71733Z" fill="black"/>
</svg>
