<svg width="30" height="30" viewBox="0 0 30 30" fill="none" xmlns="http://www.w3.org/2000/svg">
<g clip-path="url(#clip0_1283_606)">
<path d="M15.0011 19.2854C17.6639 19.2854 19.8225 17.1268 19.8225 14.464C19.8225 11.8012 17.6639 9.64258 15.0011 9.64258C12.3383 9.64258 10.1797 11.8012 10.1797 14.464C10.1797 17.1268 12.3383 19.2854 15.0011 19.2854Z" stroke="#BFF747" stroke-width="1.5" stroke-linecap="round" stroke-linejoin="round"/>
<path d="M23.5725 28.9264C22.7613 27.3524 21.5324 26.0322 20.0204 25.1105C18.5084 24.1888 16.7719 23.7012 15.0011 23.7012C13.2304 23.7012 11.4938 24.1888 9.98184 25.1105C8.46988 26.0322 7.24091 27.3524 6.42969 28.9264" stroke="#BFF747" stroke-width="1.5" stroke-linecap="round" stroke-linejoin="round"/>
<path d="M25.7167 22.6275C27.2374 20.6441 28.1727 18.2748 28.4169 15.7875C28.6612 13.3002 28.2045 10.7942 27.0987 8.55285C25.9928 6.31155 24.2819 4.4244 22.1594 3.10483C20.0368 1.78527 17.5874 1.08594 15.0882 1.08594C12.5889 1.08594 10.1395 1.78527 8.01699 3.10483C5.89448 4.4244 4.18354 6.31155 3.07769 8.55285C1.97184 10.7942 1.5152 13.3002 1.75941 15.7875C2.00363 18.2748 2.93895 20.6441 4.4596 22.6275" stroke="#BFF747" stroke-width="1.5" stroke-linecap="round" stroke-linejoin="round"/>
</g>
<defs>
<clipPath id="clip0_1283_606">
<rect width="30" height="30" fill="white"/>
</clipPath>
</defs>
</svg>
