<svg width="21" height="21" viewBox="0 0 21 21" fill="none" xmlns="http://www.w3.org/2000/svg">
<path d="M12.8901 10.4331L9.34857 13.9747L7.52393 12.15C7.27979 11.9059 6.88428 11.9059 6.64014 12.15C6.396 12.3942 6.396 12.7897 6.64014 13.0338L8.90668 15.3004C9.02875 15.4224 9.18866 15.4835 9.34857 15.4835C9.50848 15.4835 9.6684 15.4224 9.79047 15.3004L13.7739 11.3169C14.0181 11.0728 14.0181 10.6772 13.7739 10.4331C13.5298 10.189 13.1343 10.189 12.8901 10.4331Z" fill="#BFF747"/>
<path d="M15.832 2.85193H14.8945V2.25195C14.8945 1.9068 14.6147 1.62695 14.2695 1.62695C13.9244 1.62695 13.6445 1.9068 13.6445 2.25195V2.85193H6.76953V2.25195C6.76953 1.9068 6.48969 1.62695 6.14453 1.62695C5.79938 1.62695 5.51953 1.9068 5.51953 2.25195V2.85193H4.58203C2.85901 2.85193 1.45703 4.25391 1.45703 5.97693V16.002C1.45703 17.725 2.85901 19.127 4.58203 19.127H15.832C17.5551 19.127 18.957 17.725 18.957 16.002V5.97693C18.957 4.25391 17.5551 2.85193 15.832 2.85193ZM2.70703 5.97693C2.70703 4.94299 3.5481 4.10193 4.58203 4.10193H5.51953V4.7016C5.51953 5.04675 5.79938 5.3266 6.14453 5.3266C6.48969 5.3266 6.76953 5.04675 6.76953 4.7016V4.10193H13.6445V4.7016C13.6445 5.04675 13.9244 5.3266 14.2695 5.3266C14.6147 5.3266 14.8945 5.04675 14.8945 4.7016V4.10193H15.832C16.866 4.10193 17.707 4.94299 17.707 5.97693V6.60803H2.70703V5.97693ZM15.832 17.877H4.58203C3.5481 17.877 2.70703 17.0359 2.70703 16.002V7.85803H17.707V16.002C17.707 17.0359 16.866 17.877 15.832 17.877Z" fill="#BFF747"/>
</svg>
