<svg width="30" height="31" viewBox="0 0 30 31" fill="none" xmlns="http://www.w3.org/2000/svg">
<g clip-path="url(#clip0_384_20)">
<path d="M18.2132 10.9732C19.3966 10.9732 20.356 10.0138 20.356 8.83036C20.356 7.64689 19.3966 6.6875 18.2132 6.6875C17.0297 6.6875 16.0703 7.64689 16.0703 8.83036C16.0703 10.0138 17.0297 10.9732 18.2132 10.9732Z" stroke="#BFF747" stroke-width="1.5" stroke-linecap="round" stroke-linejoin="round"/>
<path d="M9.64174 21.6878C10.2335 21.6878 10.7132 21.2081 10.7132 20.6164C10.7132 20.0246 10.2335 19.5449 9.64174 19.5449C9.05001 19.5449 8.57031 20.0246 8.57031 20.6164C8.57031 21.2081 9.05001 21.6878 9.64174 21.6878Z" stroke="#BFF747" stroke-width="1.5" stroke-linecap="round" stroke-linejoin="round"/>
<path d="M9.64286 14.1881C10.8263 14.1881 11.7857 13.2287 11.7857 12.0452C11.7857 10.8617 10.8263 9.90234 9.64286 9.90234C8.45939 9.90234 7.5 10.8617 7.5 12.0452C7.5 13.2287 8.45939 14.1881 9.64286 14.1881Z" stroke="#BFF747" stroke-width="1.5" stroke-linecap="round" stroke-linejoin="round"/>
<path d="M20.3992 26.5729C20.3753 26.1573 20.2309 25.7576 19.9835 25.4227C19.7362 25.0878 19.3966 24.8323 19.0064 24.6872C18.0372 24.3687 17.2134 23.7148 16.6831 22.8432C16.1529 21.9716 15.951 20.9395 16.1137 19.9323C16.2763 18.9252 16.793 18.0091 17.5707 17.3488C18.3484 16.6885 19.3362 16.3273 20.3564 16.3301H24.3635C25.0508 16.332 25.7284 16.1686 26.3393 15.8536C26.9502 15.5387 27.4764 15.0815 27.8735 14.5205C28.2705 13.9595 28.5269 13.3113 28.6209 12.6305C28.7149 11.9497 28.6437 11.2562 28.4135 10.6087C27.5612 8.20216 26.0639 6.07619 24.0852 4.46304C22.1064 2.84988 19.7224 1.81159 17.1936 1.46159C14.6647 1.1116 12.0883 1.46337 9.7458 2.47848C7.40332 3.49358 5.38489 5.13297 3.91103 7.21753C2.43718 9.30209 1.56459 11.7516 1.38861 14.2985C1.21262 16.8454 1.74001 19.3917 2.91316 21.6591C4.0863 23.9266 5.86007 25.828 8.04067 27.1557C10.2213 28.4833 12.7248 29.1861 15.2778 29.1872C16.5386 29.1907 17.7936 29.0176 19.0064 28.6729C19.4518 28.5481 19.8375 28.2674 20.0932 27.8819C20.3489 27.4964 20.4575 27.0318 20.3992 26.5729V26.5729Z" stroke="#BFF747" stroke-width="1.5" stroke-linecap="round" stroke-linejoin="round"/>
</g>
<defs>
<clipPath id="clip0_384_20">
<rect width="30" height="30" fill="white" transform="translate(0 0.257812)"/>
</clipPath>
</defs>
</svg>
