<svg width="30" height="31" viewBox="0 0 30 31" fill="none" xmlns="http://www.w3.org/2000/svg">
<path d="M3.21317 13.3184H5.35603C5.64019 13.3184 5.91271 13.4312 6.11364 13.6322C6.31457 13.8331 6.42746 14.1056 6.42746 14.3898V19.7469C6.42746 20.0311 6.31457 20.3036 6.11364 20.5045C5.91271 20.7055 5.64019 20.8184 5.35603 20.8184H3.21317C2.64485 20.8184 2.0998 20.5926 1.69794 20.1907C1.29608 19.7889 1.07031 19.2438 1.07031 18.6755V15.4612C1.07031 14.8929 1.29608 14.3479 1.69794 13.946C2.0998 13.5441 2.64485 13.3184 3.21317 13.3184V13.3184Z" stroke="#BFF747" stroke-linecap="round" stroke-linejoin="round"/>
<path d="M26.7829 20.8184H24.6401C24.3559 20.8184 24.0834 20.7055 23.8825 20.5045C23.6815 20.3036 23.5686 20.0311 23.5686 19.7469V14.3898C23.5686 14.1056 23.6815 13.8331 23.8825 13.6322C24.0834 13.4312 24.3559 13.3184 24.6401 13.3184H26.7829C27.3512 13.3184 27.8963 13.5441 28.2982 13.946C28.7 14.3479 28.9258 14.8929 28.9258 15.4612V18.6755C28.9258 19.2438 28.7 19.7889 28.2982 20.1907C27.8963 20.5926 27.3512 20.8184 26.7829 20.8184V20.8184Z" stroke="#BFF747" stroke-linecap="round" stroke-linejoin="round"/>
<path d="M20.3555 26.7112C21.4921 26.7112 22.5822 26.2597 23.3859 25.456C24.1897 24.6522 24.6412 23.5621 24.6412 22.4255V20.8184" stroke="#BFF747" stroke-linecap="round" stroke-linejoin="round"/>
<path d="M17.678 24.0332C18.3884 24.0332 19.0697 24.3154 19.572 24.8177C20.0744 25.3201 20.3566 26.0014 20.3566 26.7118C20.3566 27.4222 20.0744 28.1035 19.572 28.6058C19.0697 29.1081 18.3884 29.3903 17.678 29.3903H14.4637C13.7533 29.3903 13.072 29.1081 12.5697 28.6058C12.0674 28.1035 11.7852 27.4222 11.7852 26.7118C11.7852 26.0014 12.0674 25.3201 12.5697 24.8177C13.072 24.3154 13.7533 24.0332 14.4637 24.0332H17.678Z" stroke="#BFF747" stroke-linecap="round" stroke-linejoin="round"/>
<path d="M5.35547 13.3189V11.1761C5.35547 8.61862 6.37141 6.16592 8.1798 4.35753C9.98818 2.54914 12.4409 1.5332 14.9983 1.5332C17.5558 1.5332 20.0085 2.54914 21.8169 4.35753C23.6252 6.16592 24.6412 8.61862 24.6412 11.1761V13.3189" stroke="#BFF747" stroke-linecap="round" stroke-linejoin="round"/>
<path d="M11.7852 9.0332V12.2475" stroke="#BFF747" stroke-linecap="round" stroke-linejoin="round"/>
<path d="M18.2148 9.0332V12.2475" stroke="#BFF747" stroke-linecap="round" stroke-linejoin="round"/>
<path d="M11.7852 16.5332C11.7852 19.3832 18.2137 19.3832 18.2137 16.5332" stroke="#BFF747" stroke-linecap="round" stroke-linejoin="round"/>
</svg>
