<svg width="30" height="30" viewBox="0 0 30 30" fill="none" xmlns="http://www.w3.org/2000/svg">
<path d="M22.1455 4.50554C20.8487 3.48307 19.3325 2.75047 17.7061 2.3606C16.0798 1.97074 14.3837 1.93329 12.7405 2.251C10.6277 2.66814 8.68389 3.66133 7.14069 5.11226C5.59749 6.5632 4.51994 8.41073 4.03638 10.4348C3.55284 12.4588 3.68368 14.5741 4.41331 16.5285C5.14295 18.4829 6.44063 20.1942 8.15177 21.4585C10.1054 22.8354 11.7689 24.5582 13.053 26.5345L13.9281 27.9356C14.0392 28.1136 14.1962 28.2608 14.384 28.3631C14.5716 28.4653 14.7837 28.5191 14.9993 28.5191C15.215 28.5191 15.4269 28.4653 15.6147 28.3631C15.8024 28.2608 15.9594 28.1136 16.0705 27.9356L16.9093 26.5898C18.0276 24.6969 19.5523 23.0554 21.3818 21.7751C22.8163 20.8246 24.0018 19.5663 24.8448 18.0992C25.6878 16.6319 26.1653 14.9963 26.2394 13.3211C26.3136 11.6458 25.9825 9.97694 25.2722 8.44603C24.562 6.9151 23.4921 5.56408 22.1468 4.49951L22.1455 4.50554ZM14.998 17.6873C14.0091 17.6873 13.0424 17.4049 12.2202 16.8758C11.3979 16.3468 10.7571 15.5948 10.3786 14.7151C10.0002 13.8353 9.90118 12.8672 10.0941 11.9332C10.287 10.9992 10.7632 10.1413 11.4625 9.46789C12.1618 8.79453 13.0527 8.33596 14.0226 8.15018C14.9925 7.9644 15.9978 8.05975 16.9115 8.42417C17.8251 8.78859 18.606 9.40573 19.1553 10.1975C19.7048 10.9893 19.998 11.9202 19.998 12.8725C19.998 14.1495 19.4713 15.3742 18.5335 16.2771C17.5959 17.1801 16.3242 17.6873 14.998 17.6873Z" fill="black"/>
</svg>
