<?xml version="1.0" encoding="UTF-8"?> <svg xmlns="http://www.w3.org/2000/svg" width="56" height="56" viewBox="0 0 56 56" fill="none"><g clip-path="url(#clip0_222_414)"><path d="M35.875 54.25C46.0232 54.25 54.25 46.0232 54.25 35.875C54.25 25.7268 46.0232 17.5 35.875 17.5C25.7268 17.5 17.5 25.7268 17.5 35.875C17.5 46.0232 25.7268 54.25 35.875 54.25Z" stroke="#1283A4" stroke-width="2" stroke-linecap="round" stroke-linejoin="round"></path><path d="M26.624 25.3748C27.3189 24.7615 28.0728 24.2184 28.8745 23.7534" stroke="#1283A4" stroke-width="2" stroke-linecap="round" stroke-linejoin="round"></path><path d="M22.1218 38.5C21.6784 36.1659 21.8343 33.7574 22.575 31.5" stroke="#1283A4" stroke-width="2" stroke-linecap="round" stroke-linejoin="round"></path><path d="M38.5 14C41.8827 14 44.625 11.2577 44.625 7.875C44.625 4.49226 41.8827 1.75 38.5 1.75C35.1173 1.75 32.375 4.49226 32.375 7.875C32.375 11.2577 35.1173 14 38.5 14Z" stroke="#1283A4" stroke-width="2" stroke-linecap="round" stroke-linejoin="round"></path><path d="M35.875 7.875C35.875 7.17881 36.1516 6.51113 36.6438 6.01884C37.1361 5.52656 37.8038 5.25 38.5 5.25" stroke="#1283A4" stroke-width="2" stroke-linecap="round" stroke-linejoin="round"></path><path d="M5.25 8.75C7.183 8.75 8.75 7.183 8.75 5.25C8.75 3.317 7.183 1.75 5.25 1.75C3.317 1.75 1.75 3.317 1.75 5.25C1.75 7.183 3.317 8.75 5.25 8.75Z" stroke="#1283A4" stroke-width="2" stroke-linecap="round" stroke-linejoin="round"></path><path d="M22.5752 18.375C21.7976 16.8513 20.6281 15.5624 19.1869 14.641C17.7458 13.7195 16.0851 13.1987 14.3758 13.1323C12.6665 13.0658 10.9704 13.4561 9.46205 14.263C7.95371 15.0698 6.68765 16.264 5.79419 17.7227C4.90074 19.1815 4.41217 20.8519 4.37879 22.5622C4.3454 24.2724 4.76841 25.9607 5.60426 27.4531C6.44011 28.9456 7.6586 30.1883 9.1343 31.0534C10.61 31.9185 12.2896 32.3747 14.0002 32.375" stroke="#1283A4" stroke-width="2" stroke-linecap="round" stroke-linejoin="round"></path><path d="M8.82227 21.8752C8.98016 20.9528 9.3809 20.0891 9.98328 19.3729C10.5857 18.6567 11.3679 18.1139 12.2496 17.8003" stroke="#1283A4" stroke-width="2" stroke-linecap="round" stroke-linejoin="round"></path><path d="M7.875 54.25C11.2577 54.25 14 51.5077 14 48.125C14 44.7423 11.2577 42 7.875 42C4.49226 42 1.75 44.7423 1.75 48.125C1.75 51.5077 4.49226 54.25 7.875 54.25Z" stroke="#1283A4" stroke-width="2" stroke-linecap="round" stroke-linejoin="round"></path><path d="M5.25 48.125C5.25 47.4288 5.52656 46.7611 6.01884 46.2688C6.51113 45.7766 7.17881 45.5 7.875 45.5" stroke="#1283A4" stroke-width="2" stroke-linecap="round" stroke-linejoin="round"></path><path d="M46.375 13.9274C47.091 14.0477 47.8242 14.0182 48.5282 13.8408C49.2322 13.6634 49.8918 13.3419 50.4652 12.8966C51.0387 12.4513 51.5135 11.8919 51.8598 11.2537C52.206 10.6155 52.4161 9.9125 52.4768 9.189C52.5375 8.46551 52.4475 7.73728 52.2125 7.05035C51.9774 6.36341 51.6024 5.73269 51.1112 5.19805C50.62 4.66341 50.0233 4.23646 49.3587 3.94418C48.694 3.65191 47.976 3.50066 47.25 3.5" stroke="#1283A4" stroke-width="2" stroke-linecap="round" stroke-linejoin="round"></path><path d="M31.4999 45.5C32.6979 46.5942 34.2527 47.2161 35.8749 47.25C41.1249 47.25 45.4999 42.875 45.4999 36.75C45.4999 29.75 42.8749 26.25 42.8749 26.25C40.2499 30.625 36.7499 30.625 33.2499 34.125C32.1903 35.1209 31.3822 36.354 30.8921 37.7231C30.402 39.0921 30.2438 40.5579 30.4306 42" stroke="#1283A4" stroke-width="2" stroke-linecap="round" stroke-linejoin="round"></path><path d="M41.125 35C39.4136 39.6242 35.9582 43.3937 31.5 45.5L28 47.25" stroke="#1283A4" stroke-width="2" stroke-linecap="round" stroke-linejoin="round"></path></g><defs><clipPath id="clip0_222_414"><rect width="56" height="56" fill="white"></rect></clipPath></defs></svg> 