<svg width="30" height="31" viewBox="0 0 30 31" fill="none" xmlns="http://www.w3.org/2000/svg">
<g clip-path="url(#clip0_1225_383)">
<path d="M8.12666 3.77539C12.1194 3.77539 15.0017 7.0717 15.0016 11.9524C14.976 19.0439 9.64501 24.0577 1.9543 25.0205C1.24079 25.1099 0.965664 24.1215 1.62272 23.8293C4.57371 22.5171 6.06411 20.852 6.25661 19.2039C6.40044 17.9726 5.73107 16.894 4.89057 16.692C2.71159 16.1684 1.25166 13.4549 1.25166 10.6504C1.25166 6.85343 4.3297 3.77539 8.12666 3.77539Z" fill="#BFF747"/>
<path d="M23.1267 3.77539C27.1194 3.77539 30.0017 7.0717 30.0016 11.9524C29.976 19.0439 24.645 24.0577 16.9543 25.0205C16.2408 25.1099 15.9657 24.1215 16.6227 23.8293C19.5737 22.5171 21.0641 20.852 21.2566 19.2039C21.4004 17.9726 20.7311 16.894 19.8906 16.692C17.7116 16.1684 16.2517 13.4549 16.2517 10.6504C16.2517 6.85343 19.3297 3.77539 23.1267 3.77539Z" fill="#BFF747"/>
</g>
<defs>
<clipPath id="clip0_1225_383">
<rect width="30" height="30" fill="white" transform="translate(0 0.0253906)"/>
</clipPath>
</defs>
</svg>
